<?xml version="1.0" encoding="UTF-8"?>
<!DOCTYPE svg PUBLIC "-//W3C//DTD SVG 1.1//EN" "http://www.w3.org/Graphics/SVG/1.1/DTD/svg11.dtd">
<!-- Creator: CorelDRAW -->
<svg xmlns="http://www.w3.org/2000/svg" xml:space="preserve" width="210mm" height="297mm" version="1.1" style="shape-rendering:geometricPrecision; text-rendering:geometricPrecision; image-rendering:optimizeQuality; fill-rule:evenodd; clip-rule:evenodd"
viewBox="0 0 21000 29700"
 xmlns:xlink="http://www.w3.org/1999/xlink"
 xmlns:xodm="http://www.corel.com/coreldraw/odm/2003">
 <defs>
  <style type="text/css">
   <![CDATA[
    .fil1 {fill:#0B7CC0}
    .fil4 {fill:#8EC2E1}
    .fil2 {fill:#EE3537}
    .fil3 {fill:#F79EA0}
    .fil0 {fill:white}
   ]]>
  </style>
 </defs>
 <g id="Layer_x0020_1">
  <metadata id="CorelCorpID_0Corel-Layer"/>
  <g id="_2911614920192">
   <path class="fil0" d="M14157.61 21224.17c-15.06,-37.09 -12.31,-37.23 -21.46,-85.96 -13.54,-72.29 -12.96,-29.3 -32.25,-76.03 -24.69,-59.53 -17.06,-506.31 -23.33,-620.27l210.58 0.43c-7.34,120.58 -36.72,284.43 -34.27,392.85 1.58,71.13 6.4,134.56 5.47,205.97 -1.15,82.29 38.52,88.98 13.24,177.74l-117.98 5.27zm-130.88 -484.73c8.49,82.44 14.61,232.9 1.57,312.09 -63.56,8.28 -128.21,5.04 -192.29,5.11 -53.12,0.07 -128.79,10.15 -175.15,-15.84 17.57,-91.36 69.62,-18.14 131.53,-79.91 112.02,-111.58 -13.39,-372.34 23.97,-519.2l192.94 2.73c11.16,63.93 9.07,213.38 17.43,295.02zm-5161.3 -573.91c255.72,-1.73 551.24,73.29 823.36,74.22 297.33,1.01 600.57,-8.86 896.96,-1.59 -14.48,71.78 -119.09,281.92 -159.33,338.36l-132.17 2.6 -1.87 572.26 -121.67 0.57 -167.52 -571.39 -979.88 3.16c-47.44,161.12 -109.07,407.26 -170.34,549.74 -185.87,3.95 -104.6,-50.03 -119.43,-552.69l-169.47 -2.01c-31.89,-55.43 -74.65,-121.81 -106.69,-168.53 -37.22,-54.28 -82.14,-100.58 -100.5,-165.08l459.16 -38.95 -232.82 -25.05c-114.39,5.76 -453.26,-23.83 -536.4,-52.77l-74.37 3.38c-1.08,2.45 -1.95,6.27 -2.16,7.77 -0.14,1.45 -1.52,5.91 -1.59,7.79 -0.14,1.79 -0.71,5.83 -0.64,7.84l12.38 41.76c107.33,262.26 199.13,647.13 260.68,780.46 52.56,113.89 153.71,115.91 187.75,181.92 -89.56,16.92 -138.8,-11.3 -216.47,-20.45 -143.34,-16.99 -107.35,14.33 -94.38,-123.39 -57.46,-14.97 -53.85,-14.33 -76.6,-68.61 -56.23,-134.19 -47.15,-155.93 -119.58,-291.14 -65.51,-122.3 -92.94,-293.07 -215.9,-335.47 -94.82,67.38 -129.01,204.67 -167.17,347.07 -19.51,72.86 -35.42,140.1 -53.78,212.88 -16.99,67.67 -60.97,141.38 -60.11,196.9 24.98,47.87 45.06,37 49.74,93.73 -63.64,9.72 -78.97,15.62 -143.33,0.86 -37.08,-66.16 -2.74,-163.78 0.5,-263.78 3.25,-99.85 0.29,-205.39 13.76,-300.56 18.64,-130.81 91.5,-428.86 61.33,-545.19 -102.44,-9.94 -130.09,-1.95 -149.46,-36.94 23.48,-12.38 -7.2,-8.56 37.58,-9.79l110.58 7.56c10.37,-41.31 39.46,-83 31.4,-127.35 -11.24,-61.84 -38.52,-19.94 -11.67,-128.71 20.95,-85.03 27,-180.49 106.69,-204.97 218.14,-67.1 413.6,80.27 551.75,64.72 37.36,-52.33 86.03,-149.81 188.68,-134.04 76.17,11.65 126.85,93.22 139.6,181.99 -14.69,19.65 -3.53,3.96 -21.1,19.22 -65.29,56.51 -35.27,54.42 -86.6,159.17 18.21,22.1 92.43,91.14 118.14,108.63l442.96 203.89zm4600.77 -563.48c-12.1,-47.08 -27.21,-35.93 -42.77,-82.87 37.07,15.63 33.05,18.3 63,45.65l39.02 33.9c50.39,40.47 90.34,44.49 165.72,50.55 376.51,30.02 197.91,76.24 302,91.43 70.19,-7.78 59.32,-34.27 104.39,-58.68 18.65,-10.08 89.41,-32.82 112.1,-41.33 54.28,152.2 72.06,200.65 77.53,360.32 1.58,45.65 10.22,101.88 -10.51,141.33 -143.98,19.8 -335.63,10.8 -445.19,-53.28 -8.72,-34.12 0.14,-124.04 -13.33,-189.77 -6.54,-32.18 -12.53,-64.5 -17.35,-93.37l-18.28 -66.52c-16.99,-36.42 -89.41,-39.16 -129.38,-40.17 -65.36,-1.65 -42.4,8.71 -90.12,41.11 -93.45,63.2 -125.56,14.4 -189.06,-10.58 7.77,-53.35 5.7,-40.97 42.33,-76.46 21.67,-21.02 30.75,-30.67 49.9,-51.26zm-960.23 682.19c272.2,40.24 943.95,-16.06 1256.26,6.27 99.06,7.05 205.75,10.51 315.67,9.93 90.65,-0.44 221.88,-24.69 289.34,-20.95 50.68,2.81 59.17,23.55 131.18,19.08 34.62,-2.16 110.64,-21.67 141.46,-1.09 30.23,20.24 36.43,84.16 -28.8,94.03l-2056.72 -0.44c-104.76,0.15 -209.72,-0.57 -314.4,0.22 -58.59,0.44 -116.77,14.69 -132.1,-29.95 -22.03,-64.07 37.36,-91.86 54,-110.07 -86.82,-36.14 -71.64,-152.12 -7.78,-203.09 57.23,-45.78 164.71,-28 238.43,-16.84 12.17,23.82 4.68,18.14 10.37,33.04l13.11 29.3c0.86,-1.87 3.09,7.13 5.39,10.15 100.87,-14.47 139.66,-98.91 265.5,-87.83 439.51,38.73 415.11,52.7 497.9,-158.1 30.95,-78.97 65.15,-163.42 100.72,-238.07 134.33,-281.77 187.24,-216.48 406.1,-141.1 231.89,79.83 224.26,86.1 435.12,84.73 118.64,-0.72 117.71,4.47 136.2,38.59l-78.32 23.32c-21.45,6.13 -41.68,12.67 -62.99,19.01 -100.29,29.73 -31.47,47.59 -116.34,73.29 -94.38,-29.66 -4.47,-55.8 -135.56,-76.74 -71.78,-11.45 -116.41,-15.41 -191.58,-15.27 -165.06,0.3 -181.77,-133.54 -270.61,-125.33 -18.65,66.15 16.2,31.31 31.75,106.98l-92.51 103.59c19.15,47.3 22.83,46.58 90.64,85.16l-60.11 229.15c63.06,44.14 364.27,74.8 455.99,99.93 51.98,14.25 75.02,34.19 136.57,44.35 193.3,32.04 323.89,15.69 504.66,-27 29.37,-6.98 45.14,-10.23 71.85,-23.54 37.14,-18.64 -2.59,-25.63 60.54,-18.28 3.67,57.37 -16.41,78.53 -51.47,99.92 -67.1,40.89 -36.72,2.44 -54.86,93.44 -71.56,5.62 -57.74,-7.84 -114.61,-18.58 -38.95,-7.34 -73.36,2.96 -114.61,7.06 -89.99,9 -159.1,12.03 -253.99,11.88l-507.83 -25.98c-311.58,26.63 -614.01,-25.35 -744.32,4.82 -75.3,17.42 -174,7.63 -259.24,11.01zm1641.92 -1018.17c20.22,34.19 144.41,258.44 92.36,281.77 -2.45,1.08 -6.26,3.88 -9.29,5.04l-165.29 6.56c-132.25,0.93 -437.85,-87.98 -463.34,-124.99 -11.52,-38.37 -13.11,-158.3 -4.61,-204.81 10.51,-57.81 61.13,-79.26 112.02,-94.88l-93.29 -110.73c-1.3,-1.87 -3.68,-4.46 -4.9,-6.48l-56.3 -205.68c56.22,-39.31 214.54,-139.3 288.62,-39.81 104.1,139.73 -15.42,262.05 66.29,320.14 67.47,48.03 149.39,24.19 237.73,173.87zm-8417.05 -570.75c16.28,-161.63 161.92,-165.08 206.69,-31.89 20.95,62.12 4.76,106.33 -67.45,103.88 -53.78,-1.73 -113.67,-46.29 -139.24,-71.99zm-214.68 -462.47c99.14,-21.67 111.89,-38.95 194.74,-79.27 25.34,26.78 177.75,386.45 186.68,425.33 -107.2,-26.14 -120.01,4.97 -174.58,66.74 -144.64,-30.46 -222.24,-260.76 -281.35,-385.59l74.51 -27.21zm-1013.85 388.53l-9.5 -13.1 9.5 13.1 12.67 98.99c-30.31,11.74 -41.83,8.85 -69.04,17.57 -57.73,18.5 -62.2,54.85 -169.83,36.64 -37.72,-56.44 -36.93,-46.58 7.2,-91.57 40.02,-40.83 22.32,-48.67 60.26,-85.03l39.31 -20.08 -39.31 20.08c-124.05,14.69 -78.11,-121.95 -57.17,-214.1 21.46,-94.16 31.61,-172.56 49.97,-266.65 149.24,19.94 151.18,39.66 325.91,21.08 -21.6,55.23 -44.06,50.55 -69.55,116.49 -133.62,345.27 -49.39,221.01 -58.31,316.48 -3.89,41.39 -15.4,39.45 -32.11,50.1zm856.05 -509.62c104.89,-6.41 268.1,-54.8 309.57,-109.44 15.62,23.19 23.82,63.86 28.43,100.51 -68.9,62.41 -180.05,101.22 -299.2,96.61l-38.8 -87.68zm-1010.55 -102.45c314.18,79.98 100.29,41.32 379.55,37.36 -67.1,83.87 -180.13,82.37 -296.97,56.08l-93.23 -36.5 10.65 -56.94zm12899.89 -1813.4c90.77,-23.47 108.34,22.32 85.52,95.97 -31.61,12.45 -61.27,13.82 -95.89,4.82 -15.41,-45.07 -17.21,-62.05 10.37,-100.79zm-12876.99 1773.95c17.71,-73.15 115.69,-155.43 158.24,-202.66l129.44 -136.64c49.74,-46.43 11.09,-17.93 55.94,-78.83 54.28,-73.58 -2.16,-12.17 16.41,-68.11 19.86,-59.6 55.58,-18.99 52.41,-130.15 -3.24,-110.87 -61.19,-162.99 -97.41,-256.72 -132.31,-342.11 -75.58,-337.57 -107.26,-436.42 -49.24,-153.63 -89.05,-262.76 -82.87,-444.62 2.95,-85.02 20.89,-89.05 102.08,-87.54 55.94,0.94 111.53,9.64 170.19,8.49l-10.94 104.17 -133.18 24.48c8.86,57.23 46.15,109.36 69.33,170.05l10.07 26.05c1.23,-3.23 123.11,-130.29 144.07,-172.12 -36.51,-47.15 -40.68,-7.56 -27.23,-133.19 205.19,-13.75 117.79,-15.7 177.54,65.22 225.11,14.19 153.85,109.28 183.3,285.6 -68.83,40.74 -50.26,30.45 -80.35,103.74l-103.74 -20.16 30.96 64.65c98.04,-13.76 212.15,-113.75 282.13,-174.51 60.11,-52.19 70.48,-49.6 78.76,-153.92 2.52,-32.18 7.06,-63.14 -0.21,-92 -0.52,-2.02 -68.04,-123.91 90.48,-89.27 30.68,6.69 10.44,-0.94 28.88,12.74 7.7,29.01 11.88,262.7 -5.12,298.33 -19.65,41.25 -114.47,175.44 -142.11,207.99 -59.39,70.04 -125.26,78.61 -178.39,172.2 -32.11,56.65 -90.13,176.31 -61.06,271.12 13.9,45.14 59.54,65.15 90,92.51 41.03,36.94 44.49,65.87 72.71,96.26 22.81,24.54 30.89,18.42 51.4,33.61 46.94,34.92 12.96,-2.16 30.82,55.07 32.97,105.26 249.45,437.35 286.6,578.68 -96.19,62.98 -176.53,103.08 -331.68,101.58 -35.63,-67.61 -80.41,-130.67 -119.79,-202.73 -216.19,-395.74 -202.51,-10.22 -402.72,113.74 -110.65,68.47 -320.36,57.59 -427.7,-6.69zm12646.97 -1605.7c-90.27,21.45 -93.73,12.38 -149.95,67.16 -37.36,36.43 -62.78,68.54 -100.58,104.97 -33.25,31.97 -61.19,61.04 -116.55,89.06 -97.77,49.38 -32.98,45.06 -82.07,121.94 -152.48,58.11 -173.58,-37.36 -201.79,172.36 -15.77,117.78 -66.24,195.45 -77.39,288.54 36.63,25.48 72.49,46.44 110.28,72.49 29.02,20.01 30.89,26.93 51.77,44.56 19.29,16.28 28.44,20.16 49.81,34.85 54,37.07 181.36,109.93 194.96,167.38 26.42,111.87 -98.99,534.17 -99.99,609.12 46.13,23.9 76.02,62.13 115.62,88.62 63.41,42.34 105.89,11.45 133.97,71.13 -49.96,63.42 -330.8,61.55 -429.5,42.84 -28.37,-132.83 54.92,-44.13 58.6,-369.32 0.72,-65.3 -16.06,-143.2 -8.79,-200 21.89,-170.47 114.25,-169.97 -166.29,-230.58 -209.07,-45.22 -45.14,-30.16 -195.32,9.5l-30.67 -49.53c-51.55,18.93 -2.95,19.22 -71.49,18.71 -26.27,-0.14 -59.32,-5.89 -89.27,-6.98 -200.71,286.1 -144.34,136.79 -419.05,375.87 -98.92,86.03 -112.75,57.52 -132.4,119.29 39.45,58.89 88.84,28.65 126.63,72.57 -27.79,71.84 -264.78,76.95 -325.76,78.47 3.67,-65.59 4.61,-97.33 36.07,-130.59l212.45 -246.86c125.19,-162.56 227.63,-86.68 293.79,-309.85 48.46,-163.35 78.91,-340.88 159.1,-458.52 44.49,-65.29 94.46,-94.81 114.26,-189.2 11.51,-54.92 33.69,-210.14 33.11,-263.91 -146.93,16.98 -14.76,-59.62 -180.55,-40.25 -86.32,10.08 -167.74,3.68 -254.13,2.52 -18.07,60.69 -17.71,49.67 -55.29,84.96l-31.96 -50.19c-26.64,35.28 -21.39,80.92 -88.77,66.23 -101.29,-183.21 414.96,-194.29 611.71,-271.91 118.06,-46.58 140.17,-24.04 265.15,-35.48 5.25,-110.73 -14.98,-207.41 63.13,-264.86 59.1,-43.41 201,-36.36 246.86,15.83 54.92,62.63 14.83,187.26 -2.31,264.5 -31.67,143.05 -121.09,139.45 -134.19,177.32 56.73,27.35 92.51,-17.21 136.21,-41.76 44.92,-25.26 80.63,-39.09 126.42,-67.02 146.58,-89.48 135.99,-119.73 209.92,-181.35 -2.3,-2.24 -5.82,-4.68 -7.41,-5.97 -1.51,-1.38 -5.33,-4.4 -7.2,-6.05 -2.45,-2.16 -11.01,-9.72 -13.53,-12.38l-31.97 -75.74c-29.37,-314.75 426.12,-219.36 263.5,41.47 -96.4,154.49 -21.39,148.16 -86.68,224.47 -24.55,-5.91 -15.41,5.69 -22.47,-18.43zm-11733.26 -449.66c2.16,-1.15 5.98,-1.45 7.2,-1.88 1.16,-0.35 5.55,-1.43 6.99,-1.94l12.81 -4.97c24.92,-12.96 13.61,-18.28 52.56,-35.56 150.02,-66.31 108.05,29.37 129.72,228.51l-109.28 1c-52.48,-161.54 -62.91,-69.9 -100,-185.16zm9912.96 -1480.95c350.59,-96.02 564.63,-150.52 940.42,-60.18l251.61 74.44c58.32,20.38 56.09,20.96 77.46,43.7l-1438.96 -0.86 169.47 -57.1zm-10441.66 -847.26c26.63,-33.76 -2.67,-77.75 72.35,-76.02 46.66,1.08 52.34,31.61 59.76,46.94l13.02 28.93c262.56,15.77 501.21,101.66 659.88,229.44 263.7,212.3 220.3,388.47 246.5,433.04 31.68,54.06 121.52,-18.15 102.73,101.5 -36.78,13.82 -48.88,18.93 -102.3,18.93l-1970.84 0c-78.61,0 -119.79,3.03 -119.65,-75.8 42.54,-32.25 58.46,-27 126.85,-28.66 55.86,-285.44 121.88,-368.16 305.75,-491.63 153.05,-102.73 372.05,-176.51 605.95,-186.67zm11205.42 641.3l193.29 99.35c-63.07,-3.38 -138.08,-28.36 -214.1,-34.7 -656.71,-55.07 -1296.36,409.42 -1374.61,-7.2 156.51,101.87 205.97,98.77 431.52,58.53 158.53,-28.29 296.1,-53.42 460.32,-76.67 -188.04,-78.98 -686.44,151.11 -774.71,-6.63 113.32,22.53 179.91,24.7 296.46,-8.49 62.5,-17.78 205.54,-55.44 249.81,-87.55 -55.36,-15.83 -117.05,-62.91 -145.78,-60.68 -81.13,6.26 -82.64,124.83 -191.35,41.26 -33.77,-25.93 -27.36,-28.95 -48.53,-46.8 -19.44,-16.42 -9.93,-5.55 -29.59,-21.81 -71.27,-58.82 -10.86,-5.99 -70.4,-35.43l3.17 -69.69c74.65,36.22 82.57,-19 135.85,-57.01 103.81,-74.01 316.54,-155.86 360.46,-248.37l-34.13 -36.86c-49.17,64 -127.49,120.8 -209.71,172.2l-110.14 82.43c-40.75,20.66 -87.91,-22.96 -152.27,4.1 -144.26,-170.18 46.73,-382.7 217.56,-409.84 134.56,-21.31 198.05,45.21 258.81,104.6 100.58,98.27 72.57,126.99 67.74,269.97 24.19,-69.4 48.46,-118 126.06,-138.58 38.02,-10.15 84.01,-12.82 124.77,-19.01 58.81,-9 60.25,-22.03 106.61,-29.88 98.49,-16.69 414.75,17.06 530.65,27.07 138.16,11.88 302.94,80.28 431.23,123.9 98.56,33.55 117.13,-12.09 175.08,-64.29 27.94,-25.2 46.3,-32.83 69.84,-63.2 35.99,-46.58 13.53,-49.89 78.39,-66.17 -12.52,62.34 -41.24,78.91 -60.89,125.84 69.04,-7.27 133.68,-101.07 166.36,-151.1 54.14,20.8 -0.86,8.13 31.97,33.18 34.2,26.07 -10.65,-8.92 37.29,11.45 -34.63,78.26 -105.4,157.38 -132.47,231.81 49.76,-13.46 63.5,-37.29 111.08,-14.18 -42.75,59.46 -81.49,64.07 -176.59,45.21 -412.58,-81.86 -224.47,129.8 -616.54,-51.48 -75.8,-35.06 -101.79,18.72 -188.04,31.54 -83.58,12.52 -118.14,-32.9 -182.07,-59.47 -152.82,-63.5 -256.06,-55.21 -404.72,-6.33 251.75,-7.13 336.27,-12.82 542.95,97.55 57.02,30.44 163.57,108.92 225.04,109.64 168.69,1.87 111.96,-4.1 235.42,70.91 130.53,79.26 247.58,200.85 415.11,248.3 201.79,57.16 342.17,-164.29 439.22,-208.63 1.79,2.44 2.23,6.77 2.66,8.5 10.65,39.45 -8.43,28.14 13.89,54.06 14.11,-16.49 12.75,-25.13 73.79,-40.6 26.93,47.01 47.08,88.47 -7.56,132.03 31.04,42.19 31.54,5.62 27.93,38.87 -3.23,30.09 -186.95,138.37 -282.92,167.46 -173.07,52.4 -257.08,-4.33 -415.1,-50.25 -138.3,-40.18 -275.73,-76.74 -414.03,-117.85 -91,-27.07 -314.74,-125.49 -404.08,-101.01zm-9971.63 -235.48c-3.09,-426.91 -56.08,-239.66 -89.7,-380.83 -15.84,-66.52 -11.88,-373.65 14.83,-424.75 31.17,106.25 -17.27,328.12 36.86,416.03 67.67,-64.29 -18.65,-340.81 37.51,-414.96 36.93,97.41 -24.41,389.19 36.28,413.23 35.42,-65.87 -7.19,-337.56 24.19,-412 35.64,66.74 -10.08,331.52 25.19,413.08 75.53,-52.4 -9.2,-344.55 47.31,-414.09 20.59,48.59 26.06,379.9 8.99,438.07 -28.43,97.33 -63.57,18.57 -74.15,155.58 -5.61,73.13 -5.97,149.37 -4.46,222.81 4.18,209.41 106.26,669.23 -27.07,807.31 -137.86,-83.51 -34.49,-636.19 -35.78,-819.48zm-2683.05 -471.55c-0.21,-164.57 120.08,-459.02 259.6,-285.45 90.27,112.31 136.35,350.96 33.47,483.5 -76.53,98.7 -83.36,58.1 -80.19,237.21 1.8,102.23 7.56,200.93 12.95,302.08 4.61,86.83 56.73,511.65 -46.14,560.02 -30.81,-12.81 -27.65,-3.38 -42.48,-45.78 -47.15,-134.7 5.77,-757.86 13.68,-900.9 9.94,-174.37 -150.53,-59.54 -150.89,-350.68zm7104.99 3083.97l211.3 923.58c-215.19,-84.87 -762.4,-976.99 -801.2,-1130.84l-569.52 -247.43c-43.56,260.04 -90.43,624.52 -34.2,887.87 30.95,144.84 72.49,242.9 147.15,337.06 96.46,121.81 133.77,103.17 304.96,166.88 -97.77,85.45 -358.59,168.68 -514.38,90.78 -438.51,-219.42 -151.55,-1437.3 -158.82,-1617.94l-316.04 -155.86c-351.97,-171.41 -656.42,-424.31 -948.92,-671.03 -304.81,-257.08 -548.51,-481.91 -809.62,-798.68 -545.4,-661.74 -544.04,-1323.77 277.67,-1737.15 170.27,-85.68 499.77,-215.54 727.04,-193.8 -72.42,80.84 -721.92,229.07 -680.89,966.34 36.14,650.37 727.62,1282.82 1219.46,1645.94l481.27 328.71c924.37,597.03 2230.44,1063.11 3365.82,1132.36 606.67,37.01 1543.42,-6.48 1848.46,-581.98 151.54,-285.95 78.11,-448.29 52.98,-683.78 185.02,283.22 335.19,790.04 125.41,1140.28 -166.08,277.31 -514.81,441.02 -941.5,521.51 -496.6,93.66 -878.45,57.44 -1377.64,29.87 -190.56,-10.58 -158.81,23.62 -253.4,116.48 -111.37,109.29 -516.47,619.06 -672.33,790.69 -118.5,130.45 -453.69,395.37 -600.49,499.7 -413.95,293.94 -1079.36,652.24 -1618.73,370.97 -533.81,-278.4 -600.41,-1060.08 -537.92,-1623.77 45.65,112.59 20.95,269.02 152.12,522.22 78.33,151.11 176.02,282.64 293.3,371.91 518.48,394.73 1433.63,-96.97 1864.43,-479.1 89.42,-79.27 607.68,-569.17 649.8,-683.06 -112.88,-42.54 -745.47,-207.12 -885.57,-238.73zm958.06 -4036.06c-191.28,592.35 -923.15,469.75 -1009.82,-32.97 -70.41,-408.12 346.49,-726.39 723.23,-553.9 114.03,52.26 164.35,125.34 235.91,210.86 83.22,-37.79 164.72,-104.46 262.77,-152.4 90.86,-44.49 189.26,-80.78 298.48,-99.21 237,-40.1 502.5,96.83 526.19,235.49 -239.66,-46.01 -406.69,-1.3 -590.48,98.04 -107.84,58.25 -386.09,268.32 -446.28,294.09zm-5034.65 -1025.38c313.95,-83.65 424.96,384.52 134.62,463.99 -332.53,91 -423.52,-387.02 -134.62,-463.99zm6707.95 1223.15c-199.48,51.25 -589.25,220.44 -758.36,315.32 -197.69,110.94 -306.97,199.2 -466.21,331.73 -33.05,27.51 -113.9,108.79 -132.18,135.13 266.66,123.68 495.95,257.3 716.96,413.96 90.57,64.21 513.02,360.6 571.55,419.85 159.67,161.33 151.04,104.46 348.01,353.05 236.34,298.11 501.63,581.19 285.37,951.22 -34.06,58.38 -72.64,131.31 -141.25,153.27 42.98,-292.58 7.49,-345.27 -112.89,-567.44 -67.66,-124.91 -204.88,-347.22 -303.73,-386.74 -2.09,2.09 -4.54,5.34 -5.61,6.84l-89.91 201.01c-107.42,242.97 -276.52,565.71 -406.47,802.7 -29.16,53.27 -75.6,164.64 -128.08,173 -73.58,11.73 -481.19,-28.51 -529.21,-57.89l386.02 -736.97c65.59,-120.66 126.79,-245.2 191.43,-364.79 57.88,-106.97 136.28,-263.7 168.89,-385.29l-141.32 -98.71c-118.42,-85.37 -313.09,-197.68 -440.59,-272.84 -194.23,-114.33 -414.09,-226.2 -624.16,-327.21 -67.54,63.43 -114.62,140.1 -170.91,214.68 -412.37,546.93 -705.16,1162.03 -765.84,1881.29 -77.62,-9.22 -703.22,-263.71 -740.73,-299.19 -38.87,-254.85 -7.12,-582.63 -7.12,-843.75l-190.64 410.71c-71.99,-22.39 -205.9,-128.51 -267.38,-164.85 8.93,-70.78 376.52,-972.54 472.7,-1049.07 -1.01,-184.87 -27.78,-550.81 -81.64,-706.16 -378.24,-28.66 -730.14,-93.02 -1116.23,-27.93 -261.47,44.06 -540.94,142.53 -640.22,399.48 -9,23.46 -9.86,32.39 -16.27,55.36l-22.6 54.64c-86.68,-107.41 -201.3,-359.96 -113.75,-528.06 209.5,-402.15 1448.11,-328.43 1822.54,-282.14 -56.59,-219.21 -168.46,-477.94 -262.26,-669.73 -52.64,-107.56 -107.63,-211.8 -159.97,-311.58 -46.44,-88.41 -145.35,-212.38 -161.34,-304.23l321.95 445.91c204.89,299.41 439.08,567.01 720.42,790.89 215.76,171.71 262.77,185.17 512.15,241.39 150.82,33.99 152.18,50.04 326.91,20.23 317.2,-54.21 617.33,-128.43 925.24,-203.3 407.9,-99.27 815.52,-181.85 1229.76,-275.3 -1.37,-342.17 -75.74,-681.25 -231.6,-913.28 -87.19,-129.73 -155.86,-194.02 -295.45,-272.64 -132.46,-74.65 -305.17,-85.66 -482.99,-88.54 64.22,-73.36 342.24,-111.95 469.96,-119.73 206.32,-12.45 341.52,-0.5 503.72,80.28 592.14,294.73 602.36,1139.98 542.6,1718.07 -28.36,274 -80.41,757.43 -189.41,970.95 -66.8,-19.22 -353.9,-300.34 -434.61,-355.56 21.38,-304.6 121.95,-610.06 114.75,-928.04zm2312.22 -2771.6c23.05,40.31 79.71,70.4 117.64,99.99 49.82,38.8 80.71,56.51 125.27,92.43 45.14,36.22 79.62,57.53 126.7,91 66.67,47.44 110.66,57.82 98.35,102.23 -158.6,69.91 -407.76,-285.73 -549.38,-317.41 -40.88,20.01 -59.68,80.99 -78.25,126.06 -88.26,214.46 -60.55,203.74 -180.41,231.24 -178.33,40.95 -161.26,-3.1 -181.42,193.86 -10.37,101.95 53.13,-4.39 17.56,114.26 84.67,7.92 159.25,60.83 208.93,117.77 24.62,28.23 21.01,24.7 57.66,47.01 32.61,-17.27 79.62,-75.08 144.06,-31.82 17.71,18.72 -8.57,182.14 -16.13,200.07 -23.1,54.21 -252.9,324.54 -270.11,415.97 57.09,52.98 76.53,7.13 84.23,86.53 -71.42,16.05 -266.08,4.17 -318.42,-37.29 -20.15,-27.79 19.23,-96.32 51.19,-131.68l11.51 -12.74c10.44,-13.6 5.26,-7.13 14.12,-22.6l150.03 -276.38c-71.49,-32.54 -171.28,-71.99 -261.62,-77.46 -47.81,53.93 -62.34,99.21 -91.36,174.66 -56.01,145.78 -70.12,123.24 -93.8,176.09 21.96,40.16 39.45,44.49 38.95,95.02 -252.84,73.22 -193.74,21.74 -362.41,46.94 -52.05,7.77 -217.63,31.89 -254.2,50.54 -38.88,19.94 -9.37,30.09 -63.22,18 -39.59,-27.86 -45.28,-61.77 -44.63,-128.79 65.52,-41.62 38.73,-50.11 83.08,-84.88 53.57,-27.29 107.12,-0.3 145.93,-55.37 2.23,2.02 4.53,5.76 5.75,6.99 45.65,45.13 80.35,4.25 105.98,-41.61 51.18,23.83 -0.15,24.4 76.74,19.72l85.74 -16.12c1.95,-4.11 6.99,-2.02 10.22,-3.6 18.73,-41.9 25.34,-141.46 43.99,-207.2 22.32,-78.9 3.38,-160.97 10.3,-243.98 11.37,-137.64 78.83,-49.16 113.46,-384.86 23.1,-223.97 79.9,-377.74 227.13,-532.59 77.32,-81.36 0.36,-67.96 53.06,-163.71 73.71,-18.15 107.91,7.41 176.23,29.16 92.22,29.36 90.2,-16.49 182.36,-10.45 32.18,38.23 22.25,42.84 74.15,66.24 -13.11,44.56 -24.33,41.97 -43.49,69.39 52.56,-20.94 20.52,-25.69 65.95,-32.68 24.55,-3.75 52.27,3.97 71.42,15.55 42.76,25.85 36.2,64.29 31.16,126.5zm-8942.14 -276.59c6.13,-90.65 -58.52,-148.02 -5.61,-276.67 45.35,-110.44 227.49,-134.7 288.97,23.25 22.03,56.66 6.49,60.04 -10.15,109.85 -71.56,215.41 -93.23,140.53 -36.07,211.09 41.61,-13.03 25.13,-20.3 60.48,-53.35 23.61,-22.03 154.34,-85.81 163.71,-128.94 0.07,-0.14 -63.72,-211.65 81.42,-190.63l24.26 69.62c33.04,77.46 -37.15,128.21 -84.96,216.69 -91.06,168.68 -87.75,160.98 -186.31,246.94 48.75,258.51 -79.04,620.2 -17.92,745.33l30.09 77.53c14.98,28.36 56.23,48.08 82.29,75.88 129.01,137.35 61.69,79.26 106.54,172.71 28.8,59.89 99.72,100.06 88.62,175.44 -14.97,102.3 -43.11,427.56 -21.08,508.18 44.92,7.56 31.31,-7.05 77.17,16.21 33.69,17.13 5.54,13.74 53.21,31.6 41.6,15.62 100.92,14.98 151.18,30.88 10.15,103.38 -52.13,99.71 -64.58,104.97 -115.69,48.73 -162.85,3.52 -270.62,20.59 -63.86,10.15 -62.99,25.12 -113.67,-2.31 -24.98,-99.49 20.65,-219.86 -14.12,-362.05 -47.22,-193.01 -37.15,-145.05 -5.61,-331.88 -18.43,-7.05 -49.24,-25.91 -67.38,-28.14 -55.94,-6.91 -16.06,10.87 -67.75,6.19 -56.36,-5.11 -180.34,-176.02 -291.21,-225.12 -76.01,63.71 -123.24,135.49 -267.23,161.19 -115.84,20.66 -121.52,156.87 -254.2,174.72 -82.07,11.02 -111.23,-38.29 -146.07,-71.92 -37.36,-36.07 -81.28,-50.68 -126.2,-91.28 -100.51,-90.86 -45.35,-38.01 -148.52,-45.5 -44.2,-3.24 -18.07,-18.22 -79.19,-13.97 -54.78,3.74 -35.56,20.73 -81.85,-7.05 -32.54,-63.13 46.86,-143.34 102.79,-156.08 48.6,-11.02 61.93,-3.53 104.18,-28.87 31.03,-18.57 153.78,-132.17 136.93,85.03 44.49,11.87 89.62,12.45 129.36,26.48 54.43,19.16 51.05,37.73 85.96,58.97 48.67,-48.96 49.82,-106.91 85.96,-155.22l93.59 -135.85c77.1,-128.22 121.88,-234.4 194.24,-276.59 -42.55,-99.35 44.63,-79.26 22.09,-291.85 -48.87,13.25 -3.02,-2.45 -43.12,27.43 -45.2,33.69 -63.85,30.81 -107.47,98.55 -25.78,40.1 -22.03,44.64 -54.73,78.55 -2.08,2.16 -35.7,36.28 -36.06,36.57 -22.39,17.28 -8.14,12.31 -42.4,19.08l29.29 51.91c-61.25,4.02 -115.32,-10.23 -132.53,-52.92 -28.3,-70.4 27.72,-82.36 62.27,-113.96l88.05 -105.19c35.35,-36.92 41.39,-79.4 67.6,-125.76 128.22,-227.57 53.78,-164.65 201.58,-282l164.78 -108.33zm4981.89 -907.68l-62.48 164.15c-24.48,-30.32 -53,-53.35 -82.51,-74.38 -51.4,-36.56 -65.65,-13.46 -73.28,-73.78l218.27 -15.99zm-717.18 140.39c120.81,69.32 98.05,93.16 138.16,241.02 11.65,0.37 278.38,-43.69 279.75,-44.41 38.67,-19.81 22.25,-59.25 119.58,-29.89 81.21,24.48 43.13,12.46 111.01,-16.48 81.28,-34.62 203.1,-20.22 286.38,-40.61 74.37,-18.13 56.52,-70.83 156.01,-159.02l7.48 28.29c4.25,18.93 -3.74,4.89 1.38,14.11l56.8 -22.32c12.24,66.67 -7.85,60.11 -41.83,89.13 -36.5,31.1 -30.74,46.22 -60.84,72.13 -23.68,20.38 -156.5,57.96 -201.78,76.24 -232.39,93.38 -257.01,24.12 -389.19,155.07 -50.32,49.82 -114.83,61.99 -109.64,167.24 3.88,78.25 24.33,167.45 29.94,254.85 8.78,135.28 49.96,59.11 -16.63,219.72 -18.21,44.06 17.35,134.91 9.72,227.49 -4.97,59.9 -16.7,186.82 -29.16,243.26l-29.59 118.5c-71.12,369.03 -130.37,293.72 -326.48,255.28 -138.87,-27.14 -78.61,-37.14 -222.16,7.92 -57.81,18.14 -151.25,50.75 -204.02,73.79 -89.49,39.17 -72.5,76.32 -127.72,150.75 -43.41,58.45 -56.66,112.59 -87.53,177.32 -114.05,19 -140.39,-61.84 -103.39,-162.27 15.26,-41.47 22.25,-65.15 32.69,-112.81 48.95,-224.04 136.78,-15.34 213.45,-197.84 29.16,-69.54 25.63,-128.72 58.03,-194.95 129.22,-3.45 81.99,94.96 230.44,71.99 26.06,-96.54 58.53,-243.25 71.42,-341.6 7.84,-60.18 36.93,-117.05 41.75,-162.2 10.22,-95.09 -27.64,-82.35 24.91,-145.71l13.53 -13.46c-32.68,-8.57 -70.19,-22.17 -95.45,-36.14 42.04,-62.34 148.01,-51.62 -29.88,-309.85 -60.48,-87.9 -377.6,-38.88 -405.46,-78.11 -26.06,-86.61 17.21,-82.43 61.19,-124.9 46.01,-44.49 26.71,-65.73 113.6,-79.19 34.85,-45.72 71.13,-87.19 111.37,-131.9 32.41,-35.91 62.64,-80.41 97.63,-124.75 5.9,-36 14.4,-53.85 27.64,-78.33 -32.32,-309.92 405.67,-493.36 295.46,-197.48 -29.38,78.98 -69.19,109.14 -108.57,160.12zm1278.71 -2437.43c373.86,-58.67 115.19,-284.79 472.99,-746.98 159.39,-205.9 391.86,-411.65 765.99,-454.48 513.3,-58.75 725.75,226.92 906.02,315.1 209.57,102.52 247.5,-59.46 358.01,15.27 155.72,105.39 -89.56,278.17 -201.72,297.25l-104.1 8.71c-35.13,6.62 -3.89,-5.69 -24.69,9.36 -26.79,31.39 29.94,319.28 -344.92,421.01 -14.61,-40.97 -55.43,-94.53 -54.93,-136.72 0.51,-42.54 170.41,-223.67 8.5,-445.19 -190.49,-260.68 -694.72,-217.13 -939.13,266.37 -134.34,265.79 -178.61,425.75 122.82,446.05l-0.79 180.78c-318.06,1.36 -231.03,216.69 -134.49,421.08 166.38,352.04 557.01,584.14 904.14,351.24 210,-140.96 234.98,-276.45 230.38,-485.07l137.86 -69.26c44.93,83.23 98.34,130.16 122.39,258.45 31.82,169.61 -20.37,201.57 -55.07,324.04 126.34,82.64 207.91,173.06 208.2,399.77 -113.25,2.15 -137.44,19.72 -184.52,-62.86 -111.08,-194.66 -412.44,-22.24 -536.55,16.06 -542.82,167.66 -1020.55,-123.18 -1280.58,-568.95 -66.52,-114.04 -100,-207.34 -133.05,-349.8 -38.51,-166.17 -50.75,-233.48 -242.32,-234.7l-0.44 -176.53zm-1701.01 -1013.35c237.14,-112.38 454.34,-206.97 775.64,-193.44 945.39,39.89 827.04,1138.98 502.07,1449.84 -37.08,35.49 -82.22,69.55 -143.05,98.63 -44.14,21.09 -140.89,45.35 -170.19,64.22 99.34,150.89 221.88,318.92 333.32,469.16 62.71,84.52 113.17,140.1 213.82,197.26 268.75,152.69 338.22,-111.23 396.52,250.82 -114.67,38.37 -258.95,66.02 -393.79,45.57 -185.59,-28.15 -252.11,-114.32 -318.92,-131.24 -114.17,142.97 -250.09,182.64 -466.15,85.1 21.89,-218.65 112.89,-167.74 137.15,-207.7 24.4,-107.56 -41.25,-178.11 -89.2,-239.08l-272.92 -379.98c-59.97,-84.01 -54.78,-127.35 -180.62,-143.05 -263.14,-32.82 -234.41,207.34 -228,427.99 10.51,360.32 125.19,332.03 288.82,364.71 4.54,58.54 19.81,110.44 35.57,155.15 -57.44,52.41 -191.21,77.89 -285.66,75.58 -135.05,-3.23 -188.12,-46.42 -258.59,-105.31 -138.15,157.22 -344.41,108.99 -541.6,42.04 11.88,-65.66 31.25,-91.07 36.21,-173 306.04,-2.73 292.14,-193.3 290.05,-552.68 -0.86,-139.59 12.75,-278.18 -73.49,-346.63 -128.65,-102.1 -183.95,16.4 -178.62,-234.34 289.26,-63.57 256.15,-179.91 252.33,-483.14 -5.69,-451.67 -68.74,-398.04 -286.6,-451.02l-31.81 -165.44 172.41 -50.4c272.07,-45.49 378.9,76.03 485.3,130.38zm-2821.35 -133.83c250.46,-64.94 299.77,-117.71 513.81,42.26 75.73,-45.65 112.8,-94.89 241.31,-102.31 117.99,-6.83 191.64,35.79 284.15,63.58l-47.23 153.7c-108.92,12.89 -159.81,9.14 -164.71,126.21 -4.97,118.85 152.76,489.75 204.09,630.93 112.39,309.41 163.86,609.84 478.32,636.91l0.5 175.73c-124.54,9.72 -154.49,59.53 -109.28,185.02 28.72,79.62 52.84,148.01 95.96,217.63 43.19,69.68 87.18,117.48 176.31,150.32 92.8,34.19 201.22,5.11 303.73,9.43l19.44 190.13c-143.41,17.35 -217.7,58.95 -375.22,34.91 -136.57,-20.81 -201.87,-67.53 -286.03,-124.05 -66.45,39.53 -88.33,95.32 -207.76,125.13 -78.55,19.58 -218.42,-8.78 -284.22,-44.71l52.55 -131.88c297.11,-40.25 105.32,-251.26 33.91,-510.35 -153.34,-24.41 -283.79,-61.77 -451.68,-66.17 -106.62,-2.8 -361.39,16.99 -453.54,51.55 -49.39,18.51 -47.81,62.34 -88.34,165.37 -178.32,453.11 53.27,268.24 110.29,404.3 11.16,26.79 21.38,61.99 27.72,88.33 -79.4,62.64 -265.58,89.71 -368.09,-84.73 -102.88,48.45 -134.27,107.27 -295.67,128.79 -120.88,16.13 -283.72,-0.36 -363.2,-50.03 -13.68,-76.1 2.81,-104.6 13.03,-178.25 339.44,3.16 431.45,37.58 577.95,-389.48 36,-104.81 -26.93,-141.89 -120.73,-158.95l4.6 -173.14c318.42,-15.63 376.45,-374.15 482.2,-655.56 52.28,-139.16 102.16,-273.28 155.22,-413.23 70.7,-186.31 101.65,-334.18 -116.91,-336.92l-42.48 -160.47zm965.63 -1193.76c-673.63,74.07 -1114.94,264.93 -1549.91,596.73 -55.58,42.4 -94.1,65.01 -148.95,117.35 -1014.8,968.79 -899.03,1692.88 -899.03,3120.91l0.64 930.99c-4.97,47.66 -30.23,51.98 -62.2,77.32 -208.34,165.44 -397.32,319.21 -576.36,499.84 -141.54,142.75 -405.61,388.32 -523.38,541.09 -174.15,225.76 -272.56,304.02 -474.35,601.41 -165.44,243.77 -265.22,371.84 -418.49,645.26 -1050.64,1874.52 -1320.97,4009.72 -682.19,6143.83 175.22,585.29 518.05,1335.02 838.92,1833.63 70.98,110.29 136.35,223.1 210.07,321.37 414.09,552.39 610.49,802.14 1127.6,1290.88 49.1,46.36 96.04,75.95 145.85,120.59l445.42 364.42c1903.02,1401.17 4191.57,1893.45 6543.75,1323.2 944.88,-229.07 1477.91,-512.07 2247.13,-956.98 162.78,-94.16 774.57,-540.37 926.32,-681.47 249.02,-231.6 431.3,-381.41 676.72,-653.25l367.45 -442.76c80.35,-100.42 164.14,-204.44 235.19,-308.77l419.14 -657.42c568.01,-952.23 904.43,-2145.27 993.19,-3282.68 100.87,-1291.81 -164.13,-2616.88 -616.68,-3640.82 -248.58,-562.25 -607.61,-1196.93 -995.2,-1676.82 -452.69,-560.39 -654.33,-750.59 -1183.77,-1222.42l-221.58 -178.11c-39.24,-30.09 -41.04,-24.05 -41.9,-84.37 -8.86,-599.41 1.08,-1283.18 1.08,-1887.26 0,-367.59 -14.4,-640.3 -121.09,-961.96 -42.62,-128.5 -95.03,-258.52 -154.64,-376.37 -31.17,-61.55 -62.42,-117.06 -95.17,-170.76 -134.12,-219.86 -184.81,-271.12 -345.42,-452.69 -431.81,-488.02 -1155.1,-820.2 -1807.64,-888.37 -368.31,-38.45 -2648.57,-18 -3201.02,-18 -326.35,0 -746.71,-21.95 -1059.5,12.46z"/>
   <path class="fil1" d="M9594.49 23614.78l1368.91 20.74c16.56,63.71 3.18,360.61 -0.35,450.67l-297.61 -3.24 -2.09 -150.53 -235.55 -0.43 -6.56 814.14 144.64 2.38 -4.04 301 -623.3 -9.29 5.33 -300.27 168.74 1.21c7.99,-120.8 26.64,-736.25 7.42,-817.82l-229.66 3.46 -2.3 143.55 -301.07 -3.96 7.49 -451.61zm-956.27 -19742.31l3703.97 0c643.25,0.86 1056.69,152.55 1546.1,395.02 86.6,42.97 164.2,91.64 242.75,144.19 43.62,29.16 74.8,49.1 114.46,79.05l505.89 461.32c120.52,143.98 227.85,288.83 323.03,450.82 285.01,485.22 393.86,959.5 393.86,1540.54 0,519.93 0,1039.78 0,1559.7 0,354.56 -56.09,272.13 141.39,438.93l360.97 316.11c123.68,103.39 425.26,409.06 527.19,536.78 34.92,43.76 57.74,61.98 91.36,102.15l426.63 540.52c299.26,426.11 576.79,871.31 791.11,1348.97l174.58 405.82c250.67,625.1 371.76,1159.93 487.17,1834.13 8.56,49.96 14.03,119.22 21.67,171.84 20.51,142.19 23.53,303.8 38.72,444.84l10.15 280.05c-0.5,81.35 11.88,109.71 12.75,180.7 1.72,140.52 -12.68,235.19 -12.61,375.29 0.15,246.79 -31.38,495.81 -58.23,715.52 -127,1040.28 -459.88,2010.43 -965.77,2915.3 -211.51,378.39 -498.47,824.95 -786.51,1147.97l-172.41 214.54c62.41,14.54 217.2,96.54 281.99,129.08l1124.79 519.64c96.54,46.36 181.92,85.45 280.12,130.95l562.04 260.1c-5.62,67.75 -286.96,409.92 -331.45,466.58l-389.62 456.72c-131.17,153.2 -467.94,509.98 -600.41,620.71l-211 187.97c-19.87,19 -28.66,30.31 -49.61,47.08 -40.96,32.76 -63.28,54.94 -105.47,88.05l-324.83 267.59c-41.31,31.1 -66.58,53.35 -108.7,84.74 -488.6,365.36 -1021.49,727.68 -1571.65,991.61l-269.1 129.94c-495.37,249.45 -1031.06,431.16 -1565.17,586.94l-470.11 122.4c-387.96,91.07 -784.05,153.05 -1176.2,202.08 -303.51,37.93 -705.65,58.73 -1067.7,63.85l-325.4 0c-58.75,-2.44 -88.7,-12.75 -163.07,-12.23 -137.65,0.93 -252.18,-17.94 -374.93,-24.05 -135.34,-6.77 -238.79,-13.1 -368.02,-31.03 -336.2,-46.66 -677.94,-81.36 -1008.17,-164.64 -891.17,-224.76 -1027.46,-260.04 -1935.2,-627.99 -46.15,-18.71 -81.85,-39.96 -132.9,-60.61 -288.83,-116.93 -770.45,-389.77 -1027.1,-544.63 -543.61,-328.21 -1057.63,-706.45 -1529.25,-1130.76l-452.97 -429.65c-68.25,-68.32 -139.38,-127.78 -196.47,-202.51l-138.43 -151.76c-20.38,-24.34 -24.41,-29.09 -45.93,-50.75 -156.08,-157.23 -404.02,-481.41 -532.45,-652.46 -30.09,-40.18 -53.64,-71.56 -82.93,-110.51 -27.21,-36.21 -66.38,-69.47 -70.77,-122.68 89.05,-47.08 188.04,-81.35 282.2,-128.86l559.96 -262.19c325.47,-156.52 662.17,-292.58 983.54,-455.34 46.8,-23.69 91.22,-39.17 141.25,-64.3 64.79,-32.54 219.57,-114.54 281.99,-129.08 -14.83,-22.17 -26.06,-41.83 -45.5,-63.35 -293.15,-324.9 -548.29,-687.67 -774.42,-1063.32l-280.54 -493.29c-134.12,-257.65 -247.72,-532.08 -357.37,-803.35l-197.33 -576.43c-171.12,-589.76 -328.21,-1348.26 -327.77,-2005.69 0.07,-138.36 -16.71,-234.69 -12.53,-375.22 2.01,-65.73 13.03,-99.92 12.6,-180.84 -1.23,-238.44 16.55,-491.92 50.39,-723.37 71.42,-487.89 153.41,-970.02 307.55,-1433.49 66.74,-200.72 126.92,-379.55 203.31,-570.47l236.63 -537.2c170.84,-339.44 357.65,-675.49 570.61,-989.09 28.14,-41.54 51.03,-70.48 79.83,-113.6 100.36,-150.68 211.59,-307.2 332.1,-441.74l175.3 -211.59c181.49,-205.25 421.8,-472.41 626.18,-643.31l354.41 -310.58c117.86,-96.04 135.28,-65.79 134.7,-252.18l0 -1741.05c0,-752.66 192.08,-1323.78 635.54,-1891.36l86.97 -106.47c32.69,-37.08 61.55,-58.75 95.17,-98.27 12.32,-14.47 7.13,-9.5 22.03,-26.35 68.46,-77.46 203.66,-193.44 281.28,-250.74l223.45 -163.36c78.91,-52.91 155.15,-98.62 243.63,-143.34 49.38,-24.9 74.58,-42.4 126.84,-66.59 233.48,-108.19 467.08,-182.27 720.14,-247.15 185.16,-47.44 459.01,-76.38 685.71,-77.31zm3921.96 19566.87c25.77,328.71 74.8,248.02 -49.6,398.98l-686.22 810.63c60.83,4.61 522.8,-49.32 555.13,-68.76 13.88,-12.67 10.36,-33.11 7.77,-58.46l-21.6 -191.99c272.57,64.79 302.07,41.61 316.83,125.19l44.72 393.29 -1366.84 159.32c-27.07,-280.62 -71.92,-261.12 53.06,-392.43l701.49 -819.63 -586.67 70.77 26.57 255 -309.06 -67.6 -51.47 -437.56 1365.89 -176.75zm1108.67 -429.79c33.69,-10.43 259.1,78.26 290.77,108.06 28.8,27.14 346,814.59 368.96,877.43 21.02,57.53 -58.03,238.37 -94.74,297.04 -31.6,50.47 -772.47,336.14 -860.87,372.49 -79.62,32.68 -98.56,9.93 -167.31,-19.15 -96.11,-40.82 -104.53,-27.43 -130.81,-74.87 -38.23,-68.97 -85.81,-214.1 -118.5,-292.07 -80.55,-192.58 -173.21,-394.81 -245.13,-590.26 -25.7,-69.69 1.8,-97.33 29.8,-163.49 14.62,-34.56 43.71,-118.79 60.34,-145.43 22.02,-35.27 17.56,-24.4 65.29,-43.12 251.47,-98.48 569.82,-254.85 802.2,-326.63zm-4714.94 1372.02l99.99 283.21 180.05 39.88 -64.21 291.43c-70.05,-5.9 -247.8,-47.23 -320.87,-68.53 -58.24,-16.92 -56.29,-51.19 -81.13,-112.46 -17.2,-42.4 -34.77,-86.1 -52.27,-128.72 -167.02,-405.38 -118.79,-409.63 -326.05,-436.42l-53.41 248.81 136.49 31.68c4.39,51.26 -42.11,240.16 -62.13,285.01 -58.24,15.7 -482.12,-102.87 -584.5,-125.63l65.3 -290.41 149.88 25.2 180.2 -789.31 -143.98 -34.34 63.71 -290.99c165.8,16.56 434.76,96.11 606.31,135.77 105.18,24.27 542.53,103.31 583.43,153.7 22.6,27.79 52.19,83.73 75.15,118.29 33.77,50.75 44.85,56.8 28.29,126.41 -23.61,98.77 -45.49,193.15 -68.97,295.1 -40.45,176.02 -9.35,131.24 -146.43,216.04 -168.81,104.46 -87.32,37.58 -264.85,26.28zm-2127.49 -1528.74c57.44,-22.32 512,171.48 602.49,206.32 49.02,18.94 267.52,94.32 295.45,115.19 24.91,18.58 128.43,246.07 127.29,283.87 -1.45,46.22 -191.79,512.43 -223.83,599.76 -25.55,69.47 -81.28,239.95 -113.96,297.39 -21.67,38.09 -215.18,128.94 -271.84,138.73 -29.59,5.11 -799.68,-284.29 -905.22,-331.16 -45.36,-20.23 -30.6,-9.58 -52.63,-56 -34.48,-72.65 -83.94,-160.33 -67.52,-214.04l227.27 -595.15c114.9,-299.63 74.8,-313.88 234.34,-382.85 51.9,-22.46 94.3,-41.26 148.16,-62.06zm8516.66 -682.12c34.2,50.32 118.14,202.23 139.46,265.29l-125.49 62.2c17.14,59.1 338.22,668.44 380.41,726.61l131.74 -65.15 135.93 258.09c-36.72,36.28 -230.96,129.15 -293.73,163.35 -133.84,72.99 -107.34,78.46 -295.53,-45.79 -77.75,-51.33 -512.29,-329.65 -565.13,-343.26 16.99,102.88 155.64,278.68 191,393.5 66,-15.47 78.17,-47.08 147.21,-57.94l131.17 259.24 -531.01 275.29c-24.33,-38.8 -122.6,-220.01 -135.12,-269.39 39.3,-11.95 92.72,-34.99 126.13,-69.19l-372.7 -714.08c-58.03,15.77 -82.37,45.5 -136.14,61.05 -34.05,-37.29 -127.57,-215.11 -136.5,-264.35l414.6 -212.09c86.96,37.43 620.28,412.58 775.71,489.04 -14.9,-50.75 -204.39,-406.83 -231.6,-437.35 -61.91,20.01 -92.51,57.95 -155.65,65.73l-128.86 -256.15 534.1 -284.65zm-500.26 1012.99c0,-2.08 -2.95,-6.12 -4.4,-4.6 -1.5,1.51 4.04,4.25 4.4,4.6l0 0zm-8611.34 -26.35c-43.63,67.17 -41.19,99.71 -133.19,120.09 -59.68,13.17 -142.26,46.35 -193.01,23.68l-605.44 -384c-2.31,1.5 -5.12,4.18 -6.34,5.25l-134.98 206.55 118.64 74.15c-16.56,50.89 -123.32,212.01 -158.68,254.42 -66.88,-24.69 -178.75,-115.19 -252.97,-156.66 -81.71,-45.78 -172.28,-103.95 -250.03,-159.31 23.25,-47.01 50.9,-82.87 79.7,-130.02 15.04,-24.7 27.71,-48.46 40.74,-68.4l44.49 -51.18 123.83 71.28 430.51 -688.68 -119 -72.86c16.85,-48.01 118.21,-208.27 156.65,-252.54 68.75,24.98 771.39,489.47 912.57,572.98 112.59,66.52 103.95,53.57 120.22,133.04 50.76,247.79 57.52,146.5 -173.71,502.21zm9917.77 -1689.5c45.06,-41.47 80.85,-74.79 125.84,-116.19 44.56,-41.11 74.58,-88.34 124.19,-117.71 44.99,28.3 307.32,306.04 336.34,350.97 -37.01,44.92 -171.48,183.29 -217.42,204.59l-117.62 -131.74c-58.32,24.76 -390.64,355.64 -457.73,424.25l178.32 183.86c33.05,-45.64 267.02,-265.72 320.15,-286.46l189.48 210c-18.72,36.36 -44.42,52.34 -76.88,82.07l-220.31 219.15 163.08 179.98c44.33,-21.53 378.88,-353.34 455.27,-422.16 -42.19,-55.86 -92.23,-83.73 -123.61,-143.7 19,-34.98 23.39,-35.05 53.12,-61.98l158.68 -140.31c47.94,41.18 316.33,317.41 336.77,359.89l-989.74 936.96c-49.6,-44.92 -170.19,-161.25 -203.37,-213.23l99.34 -89.06c-30.45,-76.74 -214.75,-237.72 -281.13,-310.28 -59.75,-65.37 -224.4,-246.15 -282.56,-290.2l-106.12 94.38c-37.29,-32.68 -183.28,-177.31 -203.37,-216.48l739.28 -706.6zm-12095.52 407.91c-185.88,-190.56 -137.5,-94.96 -186.96,-368.88 -25.49,-141.04 -27.79,-113.89 51.91,-190.71 55.14,-53.06 228.28,-247.87 292.28,-255.86 33.7,-4.18 108.42,-0.14 146.43,0 69.25,0.43 67.68,-6.33 106.33,30.82 48.31,46.42 89.2,93.22 136.28,141.6l541.74 557.79c18.5,34.06 18.07,218.92 -0.14,253.92 -8.57,16.55 -111.59,112.16 -133.04,131.31l-269.11 -143.55c16.63,-41.4 93.16,-108.42 104.31,-112.88 -82.49,-93.88 -177.38,-184.16 -267.01,-276.38 -90.43,-93.09 -176.59,-185.74 -267.73,-273.79 -36.86,17.35 -165.44,143.05 -183.08,179.48 48.95,63.72 130.23,137.51 189.55,198.41 64.43,66.09 120.16,123.25 185.02,189.84 39.74,40.75 154.5,145.42 176.16,198.26 22.9,56.23 85.53,234.34 92.8,288.47 -58.25,42.91 -138.58,131.82 -196.24,187.76 -175.38,170.33 -148.89,204.46 -398.91,183.43 -75.02,-6.26 -244.06,-213.31 -298.63,-269.46 -129.65,-133.48 -251.02,-258.23 -381.76,-392.13 -33.63,-34.42 -73.79,-55.59 -78.26,-112.53 -22.68,-289.19 47.37,-222.38 183.57,-387.96l260.55 136.63 -147.3 154.07c34.99,66.3 209.14,214.97 275.95,283.57 90.56,93.09 181.77,195.54 274.28,279.4 47.59,-33.98 157.38,-144.92 197.48,-191.14l-406.47 -419.49zm4345.85 -17703.37c312.79,-34.41 733.15,-12.46 1059.5,-12.46 552.45,0 2832.71,-20.45 3201.02,18 652.54,68.17 1375.83,400.35 1807.64,888.37 160.61,181.57 211.3,232.83 345.42,452.69 32.75,53.7 64,109.21 95.17,170.76 59.61,117.85 112.02,247.87 154.64,376.37 106.69,321.66 121.09,594.37 121.09,961.96 0,604.08 -9.94,1287.85 -1.08,1887.26 0.86,60.32 2.66,54.28 41.9,84.37l221.58 178.11c529.44,471.83 731.08,662.03 1183.77,1222.42 387.59,479.89 746.62,1114.57 995.2,1676.82 452.55,1023.94 717.55,2349.01 616.68,3640.82 -88.76,1137.41 -425.18,2330.45 -993.19,3282.68l-419.14 657.42c-71.05,104.33 -154.84,208.35 -235.19,308.77l-367.45 442.76c-245.42,271.84 -427.7,421.65 -676.72,653.25 -151.75,141.1 -763.54,587.31 -926.32,681.47 -769.22,444.91 -1302.25,727.91 -2247.13,956.98 -2352.18,570.25 -4640.73,77.97 -6543.75,-1323.2l-445.42 -364.42c-49.81,-44.64 -96.75,-74.23 -145.85,-120.59 -517.11,-488.74 -713.51,-738.49 -1127.6,-1290.88 -73.72,-98.27 -139.09,-211.08 -210.07,-321.37 -320.87,-498.61 -663.7,-1248.34 -838.92,-1833.63 -638.78,-2134.11 -368.45,-4269.31 682.19,-6143.83 153.27,-273.42 253.05,-401.49 418.49,-645.26 201.79,-297.39 300.2,-375.65 474.35,-601.41 117.77,-152.77 381.84,-398.34 523.38,-541.09 179.04,-180.63 368.02,-334.4 576.36,-499.84 31.97,-25.34 57.23,-29.66 62.2,-77.32l-0.64 -930.99c0,-1428.03 -115.77,-2152.12 899.03,-3120.91 54.85,-52.34 93.37,-74.95 148.95,-117.35 434.97,-331.8 876.28,-522.66 1549.91,-596.73z"/>
   <path class="fil2" d="M9821.55 16397.27l589.9 207.26c140.1,31.61 772.69,196.19 885.57,238.73 -42.12,113.89 -560.38,603.79 -649.8,683.06 -430.8,382.13 -1345.95,873.83 -1864.43,479.1 -117.28,-89.27 -214.97,-220.8 -293.3,-371.91 -131.17,-253.2 -106.47,-409.63 -152.12,-522.22 -62.49,563.69 4.11,1345.37 537.92,1623.77 539.37,281.27 1204.78,-77.03 1618.73,-370.97 146.8,-104.33 481.99,-369.25 600.49,-499.7 155.86,-171.63 560.96,-681.4 672.33,-790.69 94.59,-92.86 62.84,-127.06 253.4,-116.48 499.19,27.57 881.04,63.79 1377.64,-29.87 426.69,-80.49 775.42,-244.2 941.5,-521.51 209.78,-350.24 59.61,-857.06 -125.41,-1140.28 25.13,235.49 98.56,397.83 -52.98,683.78 -305.04,575.5 -1241.79,618.99 -1848.46,581.98 -1135.38,-69.25 -2441.45,-535.33 -3365.82,-1132.36l-481.27 -328.71c-491.84,-363.12 -1183.32,-995.57 -1219.46,-1645.94 -41.03,-737.27 608.47,-885.5 680.89,-966.34 -227.27,-21.74 -556.77,108.12 -727.04,193.8 -821.71,413.38 -823.07,1075.41 -277.67,1737.15 261.11,316.77 504.81,541.6 809.62,798.68 292.5,246.72 596.95,499.62 948.92,671.03l316.04 155.86c7.27,180.64 -279.69,1398.52 158.82,1617.94 155.79,77.9 416.61,-5.33 514.38,-90.78 -171.19,-63.71 -208.5,-45.07 -304.96,-166.88 -74.66,-94.16 -116.2,-192.22 -147.15,-337.06 -56.23,-263.35 -9.36,-627.83 34.2,-887.87l569.52 247.43z"/>
   <path class="fil1" d="M9592.98 12940.45l86.53 328.65c53.86,155.35 80.63,521.29 81.64,706.16 19.23,185.24 5.69,614.81 -14.68,803.21 0,261.12 -31.75,588.9 7.12,843.75 37.51,35.48 663.11,289.97 740.73,299.19 60.68,-719.26 353.47,-1334.36 765.84,-1881.29 56.29,-74.58 103.37,-151.25 170.91,-214.68 20.73,-49.67 214.25,-247.07 254.99,-277.02 18.28,-26.34 99.13,-107.62 132.18,-135.13 159.24,-132.53 268.52,-220.79 466.21,-331.73 169.11,-94.88 558.88,-264.07 758.36,-315.32 98.84,-55.15 294.6,-81.35 373.42,-127.86 -129.87,-16.92 -248.08,17.64 -370.39,36.35 -414.24,93.45 -821.86,176.03 -1229.76,275.3 -307.91,74.87 -608.04,149.09 -925.24,203.3 -174.73,29.81 -176.09,13.76 -326.91,-20.23 -249.38,-56.22 -296.39,-69.68 -512.15,-241.39 -281.34,-223.88 -515.53,-491.48 -720.42,-790.89l-321.95 -445.91c15.99,91.85 114.9,215.82 161.34,304.23 52.34,99.78 107.33,204.02 159.97,311.58 93.8,191.79 205.67,450.52 262.26,669.73z"/>
   <path class="fil2" d="M10353.72 6617.36c-10.52,-151.39 -2.38,-329.64 -2.38,-484 0,-171.98 -17.71,-297.03 95.1,-378.96 194.09,-140.89 561.75,-149.53 705.37,28.29 156.8,193.95 107.98,572.91 -40.68,745.12 -174.28,201.86 -476.07,129.94 -757.41,89.55zm-98.42 -1117.38c-106.4,-54.35 -213.23,-175.87 -485.3,-130.38l-172.41 50.4 31.81 165.44c217.86,52.98 280.91,-0.65 286.6,451.02 3.82,303.23 36.93,419.57 -252.33,483.14 -5.33,250.74 49.97,132.24 178.62,234.34 86.24,68.45 72.63,207.04 73.49,346.63 2.09,359.38 15.99,549.95 -290.05,552.68 -4.96,81.93 -24.33,107.34 -36.21,173 197.19,66.95 403.45,115.18 541.6,-42.04 70.47,58.89 123.54,102.08 258.59,105.31 94.45,2.31 228.22,-23.17 285.66,-75.58 -15.76,-44.71 -31.03,-96.61 -35.57,-155.15 -163.63,-32.68 -278.31,-4.39 -288.82,-364.71 -6.41,-220.65 -35.14,-460.81 228,-427.99 125.84,15.7 120.65,59.04 180.62,143.05l272.92 379.98c47.95,60.97 113.6,131.52 89.2,239.08 -24.26,39.96 -115.26,-10.95 -137.15,207.7 216.06,97.54 351.98,57.87 466.15,-85.1 66.81,16.92 133.33,103.09 318.92,131.24 134.84,20.45 279.12,-7.2 393.79,-45.57 -58.3,-362.05 -127.77,-98.13 -396.52,-250.82 -100.65,-57.16 -151.11,-112.74 -213.82,-197.26 -111.44,-150.24 -233.98,-318.27 -333.32,-469.16 29.3,-18.87 126.05,-43.13 170.19,-64.22 60.83,-29.08 105.97,-63.14 143.05,-98.63 324.97,-310.86 443.32,-1409.95 -502.07,-1449.84 -321.3,-13.53 -538.5,81.06 -775.64,193.44z"/>
   <path class="fil2" d="M7568.57 6835.06c8.06,-56.57 287.61,-796.08 326.55,-877.86 27.51,45.49 321.74,835.25 323.39,869.44 -258.51,52.48 -394.95,35.86 -649.94,8.42zm-134.62 -1468.91l42.48 160.47c218.56,2.74 187.61,150.61 116.91,336.92 -53.06,139.95 -102.94,274.07 -155.22,413.23 -105.75,281.41 -163.78,639.93 -482.2,655.56l-4.6 173.14c93.8,17.06 156.73,54.14 120.73,158.95 -146.5,427.06 -238.51,392.64 -577.95,389.48 -10.22,73.65 -26.71,102.15 -13.03,178.25 79.48,49.67 242.32,66.16 363.2,50.03 161.4,-21.52 192.79,-80.34 295.67,-128.79 102.51,174.44 288.69,147.37 368.09,84.73 -6.34,-26.34 -16.56,-61.54 -27.72,-88.33 -57.02,-136.06 -288.61,48.81 -110.29,-404.3 40.53,-103.03 38.95,-146.86 88.34,-165.37 92.15,-34.56 346.92,-54.35 453.54,-51.55 167.89,4.4 298.34,41.76 451.68,66.17 71.41,259.09 263.2,470.1 -33.91,510.35l-52.55 131.88c65.8,35.93 205.67,64.29 284.22,44.71 119.43,-29.81 141.31,-85.6 207.76,-125.13 84.16,56.52 149.46,103.24 286.03,124.05 157.52,24.04 231.81,-17.56 375.22,-34.91l-19.44 -190.13c-102.51,-4.32 -210.93,24.76 -303.73,-9.43 -89.13,-32.84 -133.12,-80.64 -176.31,-150.32 -43.12,-69.62 -67.24,-138.01 -95.96,-217.63 -45.21,-125.49 -15.26,-175.3 109.28,-185.02l-0.5 -175.73c-314.46,-27.07 -365.93,-327.5 -478.32,-636.91 -51.33,-141.18 -209.06,-512.08 -204.09,-630.93 4.9,-117.07 55.79,-113.32 164.71,-126.21l47.23 -153.7c-92.51,-27.79 -166.16,-70.41 -284.15,-63.58 -128.51,7.42 -165.58,56.66 -241.31,102.31 -214.04,-159.97 -263.35,-107.2 -513.81,-42.26z"/>
   <path class="fil2" d="M11956.31 6513.33l0.44 176.53c191.57,1.22 203.81,68.53 242.32,234.7 33.05,142.46 66.53,235.76 133.05,349.8 260.03,445.77 737.76,736.61 1280.58,568.95 124.11,-38.3 425.47,-210.72 536.55,-16.06 47.08,82.58 71.27,65.01 184.52,62.86 -0.29,-226.71 -81.86,-317.13 -208.2,-399.77 34.7,-122.47 86.89,-154.43 55.07,-324.04 -24.05,-128.29 -77.46,-175.22 -122.39,-258.45l-137.86 69.26c4.6,208.62 -20.38,344.11 -230.38,485.07 -347.13,232.9 -737.76,0.8 -904.14,-351.24 -96.54,-204.39 -183.57,-419.72 134.49,-421.08l0.79 -180.78c-301.43,-20.3 -257.16,-180.26 -122.82,-446.05 244.41,-483.5 748.64,-527.05 939.13,-266.37 161.91,221.52 -7.99,402.65 -8.5,445.19 -0.5,42.19 40.32,95.75 54.93,136.72 374.86,-101.73 318.13,-389.62 344.92,-421.01 20.8,-15.05 -10.44,-2.74 24.69,-9.36l104.1 -8.71c112.16,-19.08 357.44,-191.86 201.72,-297.25 -110.51,-74.73 -148.44,87.25 -358.01,-15.27 -180.27,-88.18 -392.72,-373.85 -906.02,-315.1 -374.13,42.83 -606.6,248.58 -765.99,454.48 -357.8,462.19 -99.13,688.31 -472.99,746.98z"/>
   <path class="fil2" d="M11431.07 13825.44c210.07,101.01 429.93,212.88 624.16,327.21 127.5,75.16 322.17,187.47 440.59,272.84l141.32 98.71c-32.61,121.59 -111.01,278.32 -168.89,385.29 -64.64,119.59 -125.84,244.13 -191.43,364.79l-386.02 736.97c48.02,29.38 455.63,69.62 529.21,57.89 52.48,-8.36 98.92,-119.73 128.08,-173 129.95,-236.99 299.05,-559.73 406.47,-802.7l89.91 -201.01c1.07,-1.5 3.52,-4.75 5.61,-6.84 98.85,39.52 236.07,261.83 303.73,386.74 120.38,222.17 155.87,274.86 112.89,567.44 68.61,-21.96 107.19,-94.89 141.25,-153.27 216.26,-370.03 -49.03,-653.11 -285.37,-951.22 -196.97,-248.59 -188.34,-191.72 -348.01,-353.05 -58.53,-59.25 -480.98,-355.64 -571.55,-419.85 -221.01,-156.66 -450.3,-290.28 -716.96,-413.96 -40.74,29.95 -234.26,227.35 -254.99,277.02z"/>
   <path class="fil2" d="M13045.84 12674.73c122.31,-18.71 240.52,-53.27 370.39,-36.35 -78.82,46.51 -274.58,72.71 -373.42,127.86 7.2,317.98 -93.37,623.44 -114.75,928.04 80.71,55.22 367.81,336.34 434.61,355.56 109,-213.52 161.05,-696.95 189.41,-970.95 59.76,-578.09 49.54,-1423.34 -542.6,-1718.07 -162.2,-80.78 -297.4,-92.73 -503.72,-80.28 -127.72,7.78 -405.74,46.37 -469.96,119.73 177.82,2.88 350.53,13.89 482.99,88.54 139.59,78.62 208.26,142.91 295.45,272.64 155.86,232.03 230.23,571.11 231.6,913.28z"/>
   <path class="fil1" d="M6412.89 9718.05l-164.78 108.33c-147.8,117.35 -73.36,54.43 -201.58,282 -26.21,46.36 -32.25,88.84 -67.6,125.76l-88.05 105.19c-34.55,31.6 -90.57,43.56 -62.27,113.96 17.21,42.69 71.28,56.94 132.53,52.92l-29.29 -51.91c34.26,-6.77 20.01,-1.8 42.4,-19.08 0.36,-0.29 33.98,-34.41 36.06,-36.57 32.7,-33.91 28.95,-38.45 54.73,-78.55 43.62,-67.74 62.27,-64.86 107.47,-98.55 40.1,-29.88 -5.75,-14.18 43.12,-27.43 22.54,212.59 -64.64,192.5 -22.09,291.85 -72.36,42.19 -117.14,148.37 -194.24,276.59l-93.59 135.85c-36.14,48.31 -37.29,106.26 -85.96,155.22 -34.91,-21.24 -31.53,-39.81 -85.96,-58.97 -39.74,-14.03 -84.87,-14.61 -129.36,-26.48 16.85,-217.2 -105.9,-103.6 -136.93,-85.03 -42.25,25.34 -55.58,17.85 -104.18,28.87 -55.93,12.74 -135.33,92.95 -102.79,156.08 46.29,27.78 27.07,10.79 81.85,7.05 61.12,-4.25 34.99,10.73 79.19,13.97 103.17,7.49 48.01,-45.36 148.52,45.5 44.92,40.6 88.84,55.21 126.2,91.28 34.84,33.63 64,82.94 146.07,71.92 132.68,-17.85 138.36,-154.06 254.2,-174.72 143.99,-25.7 191.22,-97.48 267.23,-161.19 110.87,49.1 234.85,220.01 291.21,225.12 51.69,4.68 11.81,-13.1 67.75,-6.19 18.14,2.23 48.95,21.09 67.38,28.14 -31.54,186.83 -41.61,138.87 5.61,331.88 34.77,142.19 -10.86,262.56 14.12,362.05 50.68,27.43 49.81,12.46 113.67,2.31 107.77,-17.07 154.93,28.14 270.62,-20.59 12.45,-5.26 74.73,-1.59 64.58,-104.97 -50.26,-15.9 -109.58,-15.26 -151.18,-30.88 -47.67,-17.86 -19.52,-14.47 -53.21,-31.6 -45.86,-23.26 -32.25,-8.65 -77.17,-16.21 -22.03,-80.62 6.11,-405.88 21.08,-508.18 11.1,-75.38 -59.82,-115.55 -88.62,-175.44 -44.85,-93.45 22.47,-35.36 -106.54,-172.71 -26.06,-27.8 -67.31,-47.52 -82.29,-75.88l-30.09 -77.53c-61.12,-125.13 66.67,-486.82 17.92,-745.33 98.56,-85.96 95.25,-78.26 186.31,-246.94 47.81,-88.48 118,-139.23 84.96,-216.69l-24.26 -69.62c-145.14,-21.02 -81.35,190.49 -81.42,190.63 -9.37,43.13 -140.1,106.91 -163.71,128.94 -35.35,33.05 -18.87,40.32 -60.48,53.35 -57.16,-70.56 -35.49,4.32 36.07,-211.09 16.64,-49.81 32.18,-53.19 10.15,-109.85 -61.48,-157.95 -243.62,-133.69 -288.97,-23.25 -52.91,128.65 11.74,186.02 5.61,276.67z"/>
   <path class="fil0" d="M14838.42 23179.1c1.45,-1.52 4.4,2.52 4.4,4.6l0 0c-0.36,-0.35 -5.9,-3.09 -4.4,-4.6zm-29.44 -723.74l128.86 256.15c63.14,-7.78 93.74,-45.72 155.65,-65.73 27.21,30.52 216.7,386.6 231.6,437.35 -155.43,-76.46 -688.75,-451.61 -775.71,-489.04l-414.6 212.09c8.93,49.24 102.45,227.06 136.5,264.35 53.77,-15.55 78.11,-45.28 136.14,-61.05l372.7 714.08c-33.41,34.2 -86.83,57.24 -126.13,69.19 12.52,49.38 110.79,230.59 135.12,269.39l531.01 -275.29 -131.17 -259.24c-69.04,10.86 -81.21,42.47 -147.21,57.94 -35.36,-114.82 -174.01,-290.62 -191,-393.5 52.84,13.61 487.38,291.93 565.13,343.26 188.19,124.25 161.69,118.78 295.53,45.79 62.77,-34.2 257.01,-127.07 293.73,-163.35l-135.93 -258.09 -131.74 65.15c-42.19,-58.17 -363.27,-667.51 -380.41,-726.61l125.49 -62.2c-21.32,-63.06 -105.26,-214.97 -139.46,-265.29l-534.1 284.65z"/>
   <path class="fil0" d="M9068.81 24087.99l-607.03 -133.9 53.48 -249.74 605.6 136.35 -52.05 247.29zm-991.54 -487.02l143.98 34.34 -180.2 789.31 -149.88 -25.2 -65.3 290.41c102.38,22.76 526.26,141.33 584.5,125.63 20.02,-44.85 66.52,-233.75 62.13,-285.01l-136.49 -31.68 53.41 -248.81c207.26,26.79 159.03,31.04 326.05,436.42 17.5,42.62 35.07,86.32 52.27,128.72 24.84,61.27 22.89,95.54 81.13,112.46 73.07,21.3 250.82,62.63 320.87,68.53l64.21 -291.43 -180.05 -39.88 -99.99 -283.21c177.53,11.3 96.04,78.18 264.85,-26.28 137.08,-84.8 105.98,-40.02 146.43,-216.04 23.48,-101.95 45.36,-196.33 68.97,-295.1 16.56,-69.61 5.48,-75.66 -28.29,-126.41 -22.96,-34.56 -52.55,-90.5 -75.15,-118.29 -40.9,-50.39 -478.25,-129.43 -583.43,-153.7 -171.55,-39.66 -440.51,-119.21 -606.31,-135.77l-63.71 290.99z"/>
   <path class="fil0" d="M4460.2 22295.25c-40.1,46.22 -149.89,157.16 -197.48,191.14 -92.51,-83.86 -183.72,-186.31 -274.28,-279.4 -66.81,-68.6 -240.96,-217.27 -275.95,-283.57l147.3 -154.07 -260.55 -136.63c-136.2,165.58 -206.25,98.77 -183.57,387.96 4.47,56.94 44.63,78.11 78.26,112.53 130.74,133.9 252.11,258.65 381.76,392.13 54.57,56.15 223.61,263.2 298.63,269.46 250.02,21.03 223.53,-13.1 398.91,-183.43 57.66,-55.94 137.99,-144.85 196.24,-187.76 -7.27,-54.13 -69.9,-232.24 -92.8,-288.47 -21.66,-52.84 -136.42,-157.51 -176.16,-198.26 -64.86,-66.59 -120.59,-123.75 -185.02,-189.84 -59.32,-60.9 -140.6,-134.69 -189.55,-198.41 17.64,-36.43 146.22,-162.13 183.08,-179.48 91.14,88.05 177.3,180.7 267.73,273.79 89.63,92.22 184.52,182.5 267.01,276.38 -11.15,4.46 -87.68,71.48 -104.31,112.88l269.11 143.55c21.45,-19.15 124.47,-114.76 133.04,-131.31 18.21,-35 18.64,-219.86 0.14,-253.92l-541.74 -557.79c-47.08,-48.38 -87.97,-95.18 -136.28,-141.6 -38.65,-37.15 -37.08,-30.39 -106.33,-30.82 -38.01,-0.14 -112.73,-4.18 -146.43,0 -64,7.99 -237.14,202.8 -292.28,255.86 -79.7,76.82 -77.4,49.67 -51.91,190.71 49.46,273.92 1.08,178.32 186.96,368.88l406.47 419.49z"/>
   <path class="fil0" d="M11194.29 23616.09l51.47 437.56 309.06 67.6 -26.57 -255 586.67 -70.77 -701.49 819.63c-124.98,131.31 -80.13,111.81 -53.06,392.43l1366.84 -159.32 -44.72 -393.29c-14.76,-83.58 -44.26,-60.4 -316.83,-125.19l21.6 191.99c2.59,25.35 6.11,45.79 -7.77,58.46 -32.33,19.44 -494.3,73.37 -555.13,68.76l686.22 -810.63c124.4,-150.96 75.37,-70.27 49.6,-398.98l-1365.89 176.75z"/>
   <path class="fil0" d="M15409.97 22174.45c20.09,39.17 166.08,183.8 203.37,216.48l106.12 -94.38c58.16,44.05 222.81,224.83 282.56,290.2 66.38,72.56 250.68,233.54 281.13,310.28l-99.34 89.06c33.18,51.98 153.77,168.31 203.37,213.23l989.74 -936.96c-20.44,-42.48 -288.83,-318.71 -336.77,-359.89l-158.68 140.31c-29.73,26.93 -34.12,27 -53.12,61.98 31.38,59.97 81.42,87.84 123.61,143.7 -76.39,68.82 -410.94,400.63 -455.27,422.16l-163.08 -179.98 220.31 -219.15c32.46,-29.73 58.16,-45.71 76.88,-82.07l-189.48 -210c-53.13,20.74 -287.1,240.82 -320.15,286.46l-178.32 -183.86c67.09,-68.61 399.41,-399.49 457.73,-424.25l117.62 131.74c45.94,-21.3 180.41,-159.67 217.42,-204.59 -29.02,-44.93 -291.35,-322.67 -336.34,-350.97 -49.61,29.37 -79.63,76.6 -124.19,117.71 -44.99,41.4 -80.78,74.72 -125.84,116.19l-739.28 706.6z"/>
   <path class="fil1" d="M4370.71 17969.86c107.34,64.28 317.05,75.16 427.7,6.69 200.21,-123.96 186.53,-509.48 402.72,-113.74 39.38,72.06 84.16,135.12 119.79,202.73 155.15,1.5 235.49,-38.6 331.68,-101.58 -37.15,-141.33 -253.63,-473.42 -286.6,-578.68 -17.86,-57.23 16.12,-20.15 -30.82,-55.07 -20.51,-15.19 -28.59,-9.07 -51.4,-33.61 -28.22,-30.39 -31.68,-59.32 -72.71,-96.26 -30.46,-27.36 -76.1,-47.37 -90,-92.51 -29.07,-94.81 28.95,-214.47 61.06,-271.12 53.13,-93.59 119,-102.16 178.39,-172.2 27.64,-32.55 122.46,-166.74 142.11,-207.99 17,-35.63 12.82,-269.32 5.12,-298.33 -18.44,-13.68 1.8,-6.05 -28.88,-12.74 -158.52,-34.64 -91,87.25 -90.48,89.27 7.27,28.86 2.73,59.82 0.21,92 -8.28,104.32 -18.65,101.73 -78.76,153.92 -69.98,60.76 -184.09,160.75 -282.13,174.51l-30.96 -64.65 103.74 20.16c30.09,-73.29 11.52,-63 80.35,-103.74 -29.45,-176.32 41.81,-271.41 -183.3,-285.6 -59.75,-80.92 27.65,-78.97 -177.54,-65.22 -13.45,125.63 -9.28,86.04 27.23,133.19 -20.96,41.83 -142.84,168.89 -144.07,172.12l-10.07 -26.05c-23.18,-60.69 -60.47,-112.82 -69.33,-170.05l133.18 -24.48 10.94 -104.17c-58.66,1.15 -114.25,-7.55 -170.19,-8.49 -81.19,-1.51 -99.13,2.52 -102.08,87.54 -6.18,181.86 33.63,290.99 82.87,444.62 31.68,98.85 -25.05,94.31 107.26,436.42 36.22,93.73 94.17,145.85 97.41,256.72 3.17,111.16 -32.55,70.55 -52.41,130.15 -18.57,55.94 37.87,-5.47 -16.41,68.11 -44.85,60.9 -6.2,32.4 -55.94,78.83l-129.44 136.64c-42.55,47.23 -140.53,129.51 -158.24,202.66z"/>
   <path class="fil0" d="M13715.14 23315.3c23.33,28.8 298.91,692.56 313.16,753.04l-715.51 288.54 -303.31 -753.89 705.66 -287.69zm-46.29 -305.75c-232.38,71.78 -550.73,228.15 -802.2,326.63 -47.73,18.72 -43.27,7.85 -65.29,43.12 -16.63,26.64 -45.72,110.87 -60.34,145.43 -28,66.16 -55.5,93.8 -29.8,163.49 71.92,195.45 164.58,397.68 245.13,590.26 32.69,77.97 80.27,223.1 118.5,292.07 26.28,47.44 34.7,34.05 130.81,74.87 68.75,29.08 87.69,51.83 167.31,19.15 88.4,-36.35 829.27,-322.02 860.87,-372.49 36.71,-58.67 115.76,-239.51 94.74,-297.04 -22.96,-62.84 -340.16,-850.29 -368.96,-877.43 -31.67,-29.8 -257.08,-118.49 -290.77,-108.06z"/>
   <path class="fil1" d="M17017.68 16364.16c12.09,-111.37 0.73,-126.49 -94.24,-147.37 -73.93,61.62 -63.34,91.87 -209.92,181.35 -45.79,27.93 -81.5,41.76 -126.42,67.02 -43.7,24.55 -79.48,69.11 -136.21,41.76 13.1,-37.87 102.52,-34.27 134.19,-177.32 17.14,-77.24 57.23,-201.87 2.31,-264.5 -45.86,-52.19 -187.76,-59.24 -246.86,-15.83 -78.11,57.45 -57.88,154.13 -63.13,264.86 -124.98,11.44 -147.09,-11.1 -265.15,35.48 -196.75,77.62 -713,88.7 -611.71,271.91 67.38,14.69 62.13,-30.95 88.77,-66.23l31.96 50.19c37.58,-35.29 37.22,-24.27 55.29,-84.96 86.39,1.16 167.81,7.56 254.13,-2.52 165.79,-19.37 33.62,57.23 180.55,40.25 0.58,53.77 -21.6,208.99 -33.11,263.91 -19.8,94.39 -69.77,123.91 -114.26,189.2 -80.19,117.64 -110.64,295.17 -159.1,458.52 -66.16,223.17 -168.6,147.29 -293.79,309.85l-212.45 246.86c-31.46,33.26 -32.4,65 -36.07,130.59 60.98,-1.52 297.97,-6.63 325.76,-78.47 -37.79,-43.92 -87.18,-13.68 -126.63,-72.57 19.65,-61.77 33.48,-33.26 132.4,-119.29 274.71,-239.08 218.34,-89.77 419.05,-375.87 29.95,1.09 63,6.84 89.27,6.98 68.54,0.51 19.94,0.22 71.49,-18.71l30.67 49.53c150.18,-39.66 -13.75,-54.72 195.32,-9.5 280.54,60.61 188.18,60.11 166.29,230.58 -7.27,56.8 9.51,134.7 8.79,200 -3.68,325.19 -86.97,236.49 -58.6,369.32 98.7,18.71 379.54,20.58 429.5,-42.84 -28.08,-59.68 -70.56,-28.79 -133.97,-71.13 -39.6,-26.49 -69.49,-64.72 -115.62,-88.62 1,-74.95 126.41,-497.25 99.99,-609.12 -13.6,-57.45 -140.96,-130.31 -194.96,-167.38 -21.37,-14.69 -30.52,-18.57 -49.81,-34.85 -20.88,-17.63 -22.75,-24.55 -51.77,-44.56 -37.79,-26.05 -73.65,-47.01 -110.28,-72.49 11.15,-93.09 61.62,-170.76 77.39,-288.54 28.21,-209.72 49.31,-114.25 201.79,-172.36 49.09,-76.88 -15.7,-72.56 82.07,-121.94 55.36,-28.02 83.3,-57.09 116.55,-89.06 37.8,-36.43 63.22,-68.54 100.58,-104.97 56.22,-54.78 59.68,-45.71 149.95,-67.16z"/>
   <path class="fil0" d="M7259.37 24187.41l-723.09 -272.42 285.24 -760.8 719.63 268.46c-16.28,97.97 -100.07,280.61 -139.16,384.93 -44.28,117.85 -112.74,267.38 -142.62,379.83zm-432.95 -1334.58c-53.86,20.8 -96.26,39.6 -148.16,62.06 -159.54,68.97 -119.44,83.22 -234.34,382.85l-227.27 595.15c-16.42,53.71 33.04,141.39 67.52,214.04 22.03,46.42 7.27,35.77 52.63,56 105.54,46.87 875.63,336.27 905.22,331.16 56.66,-9.79 250.17,-100.64 271.84,-138.73 32.68,-57.44 88.41,-227.92 113.96,-297.39 32.04,-87.33 222.38,-553.54 223.83,-599.76 1.14,-37.8 -102.38,-265.29 -127.29,-283.87 -27.93,-20.87 -246.43,-96.25 -295.45,-115.19 -90.49,-34.84 -545.05,-228.64 -602.49,-206.32z"/>
   <path class="fil1" d="M10677.6 8950.76c-92.87,-25.2 -122.17,8.56 -186.89,37.36 -13.24,24.48 -21.74,42.33 -27.64,78.33l2.88 28.64c15.54,28.73 28.51,66.52 49.31,92.88 30.16,38.08 53.21,31.39 65.8,76.81 -24.11,59.54 -61.84,48.1 -134.34,68.4 -55.43,15.47 -94.31,39.3 -153.34,44.56 -12.09,-16.63 -15.4,20.58 -9.06,-26.57l-30.25 -28.07c-86.89,13.46 -67.59,34.7 -113.6,79.19 -43.98,42.47 -87.25,38.29 -61.19,124.9 27.86,39.23 344.98,-9.79 405.46,78.11 177.89,258.23 71.92,247.51 29.88,309.85 25.26,13.97 62.77,27.57 95.45,36.14l-13.53 13.46c-52.55,63.36 -14.69,50.62 -24.91,145.71 -4.82,45.15 -33.91,102.02 -41.75,162.2 -12.89,98.35 -45.36,245.06 -71.42,341.6 -148.45,22.97 -101.22,-75.44 -230.44,-71.99 -32.4,66.23 -28.87,125.41 -58.03,194.95 -76.67,182.5 -164.5,-26.2 -213.45,197.84 -10.44,47.66 -17.43,71.34 -32.69,112.81 -37,100.43 -10.66,181.27 103.39,162.27 30.87,-64.73 44.12,-118.87 87.53,-177.32 55.22,-74.43 38.23,-111.58 127.72,-150.75 52.77,-23.04 146.21,-55.65 204.02,-73.79 143.55,-45.06 83.29,-35.06 222.16,-7.92 196.11,38.44 255.36,113.75 326.48,-255.28l29.59 -118.5c12.46,-56.44 24.19,-183.36 29.16,-243.26 7.63,-92.58 -27.93,-183.43 -9.72,-227.49 66.59,-160.61 25.41,-84.44 16.63,-219.72 -5.61,-87.4 -26.06,-176.6 -29.94,-254.85 -5.19,-105.25 59.32,-117.42 109.64,-167.24 132.18,-130.95 156.8,-61.69 389.19,-155.07 45.28,-18.28 178.1,-55.86 201.78,-76.24 30.1,-25.91 24.34,-41.03 60.84,-72.13 33.98,-29.02 54.07,-22.46 41.83,-89.13l-56.8 22.32c-5.12,-9.22 2.87,4.82 -1.38,-14.11l-7.48 -28.29c-99.49,88.19 -81.64,140.89 -156.01,159.02 -83.28,20.39 -205.1,5.99 -286.38,40.61 -67.88,28.94 -29.8,40.96 -111.01,16.48 -97.33,-29.36 -80.91,10.08 -119.58,29.89 -1.37,0.72 -268.1,44.78 -279.75,44.41 -40.11,-147.86 -17.35,-171.7 -138.16,-241.02z"/>
   <path class="fil0" d="M5458.43 22660.9c21.74,-56.8 96.83,-163.35 129.15,-218.42 124.84,48.73 374.5,254.35 527.85,321.23 -13.9,48.44 -110.87,195.52 -138.52,221.29 -146.79,-74.94 -429.5,-284.51 -518.48,-324.1zm-242.68 -459.24l119 72.86 -430.51 688.68 -123.83 -71.28 -44.49 51.18c-13.03,19.94 -25.7,43.7 -40.74,68.4 -28.8,47.15 -56.45,83.01 -79.7,130.02 77.75,55.36 168.32,113.53 250.03,159.31 74.22,41.47 186.09,131.97 252.97,156.66 35.36,-42.41 142.12,-203.53 158.68,-254.42l-118.64 -74.15 134.98 -206.55c1.22,-1.07 4.03,-3.75 6.34,-5.25l605.44 384c50.75,22.67 133.33,-10.51 193.01,-23.68 92,-20.38 89.56,-52.92 133.19,-120.09 231.23,-355.71 224.47,-254.42 173.71,-502.21 -16.27,-79.47 -7.63,-66.52 -120.22,-133.04 -141.18,-83.51 -843.82,-548 -912.57,-572.98 -38.44,44.27 -139.8,204.53 -156.65,252.54z"/>
   <path class="fil2" d="M15229.12 14164.23c110.01,36.86 206.91,80.35 335.91,75.03 129.09,-5.4 267.6,-12.1 396.11,-11.67 89.34,-24.48 313.08,73.94 404.08,101.01 138.3,41.11 275.73,77.67 414.03,117.85 158.02,45.92 242.03,102.65 415.1,50.25 95.97,-29.09 279.69,-137.37 282.92,-167.46 3.61,-33.25 3.11,3.32 -27.93,-38.87 54.64,-43.56 34.49,-85.02 7.56,-132.03 -61.04,15.47 -59.68,24.11 -73.79,40.6 -22.32,-25.92 -3.24,-14.61 -13.89,-54.06 -0.43,-1.73 -0.87,-6.06 -2.66,-8.5 -97.05,44.34 -237.43,265.79 -439.22,208.63 -167.53,-47.45 -284.58,-169.04 -415.11,-248.3 -123.46,-75.01 -66.73,-69.04 -235.42,-70.91 -61.47,-0.72 -168.02,-79.2 -225.04,-109.64 -206.68,-110.37 -291.2,-104.68 -542.95,-97.55 148.66,-48.88 251.9,-57.17 404.72,6.33 63.93,26.57 98.49,71.99 182.07,59.47 86.25,-12.82 112.24,-66.6 188.04,-31.54 392.07,181.28 203.96,-30.38 616.54,51.48 95.1,18.86 133.84,14.25 176.59,-45.21 -47.58,-23.11 -61.32,0.72 -111.08,14.18 27.07,-74.43 97.84,-153.55 132.47,-231.81 -47.94,-20.37 -3.09,14.62 -37.29,-11.45 -32.83,-25.05 22.17,-12.38 -31.97,-33.18 -32.68,50.03 -97.32,143.83 -166.36,151.1 19.65,-46.93 48.37,-63.5 60.89,-125.84 -64.86,16.28 -42.4,19.59 -78.39,66.17 -23.54,30.37 -41.9,38 -69.84,63.2 -57.95,52.2 -76.52,97.84 -175.08,64.29 -128.29,-43.62 -293.07,-112.02 -431.23,-123.9 -115.9,-10.01 -432.16,-43.76 -530.65,-27.07 -46.36,7.85 -47.8,20.88 -106.61,29.88 -40.76,6.19 -86.75,8.86 -124.77,19.01 -77.6,20.58 -101.87,69.18 -126.06,138.58 4.83,-142.98 32.84,-171.7 -67.74,-269.97 -60.76,-59.39 -124.25,-125.91 -258.81,-104.6 -170.83,27.14 -361.82,239.66 -217.56,409.84 64.36,-27.06 111.52,16.56 152.27,-4.1l110.14 -82.43c82.22,-51.4 160.54,-108.2 209.71,-172.2l34.13 36.86c-43.92,92.51 -256.65,174.36 -360.46,248.37 -53.28,38.01 -61.2,93.23 -135.85,57.01l-3.17 69.69c59.54,29.44 -0.87,-23.39 70.4,35.43 19.66,16.26 10.15,5.39 29.59,21.81 21.17,17.85 14.76,20.87 48.53,46.8 108.71,83.57 110.22,-35 191.35,-41.26 28.73,-2.23 90.42,44.85 145.78,60.68zm-524.67 -391.62c-9.86,-109.87 79.91,-181.2 140.39,-222.31 63.49,-43.13 169.03,-75.24 241.89,-34.7 33.04,18.35 5.32,3.3 21.81,16.19 -111.38,-19.14 -171.84,0.73 -247.58,70.63 -140.02,129 -36.35,183.07 -156.51,170.19z"/>
   <path class="fil1" d="M5469.08 14231.05c-37.29,-17.64 -81.35,-136.5 -107.55,-179.83 -86.24,-142.91 -278.46,-360.9 -443.76,-403.74 154.86,11.95 378.1,125.05 482.06,196.26 95.17,65.22 282.2,234.26 296.89,387.16l-227.64 0.15zm-713.36 -644.76c-233.9,10.16 -452.9,83.94 -605.95,186.67 -183.87,123.47 -249.89,206.19 -305.75,491.63 -68.39,1.66 -84.31,-3.59 -126.85,28.66 -0.14,78.83 41.04,75.8 119.65,75.8l1970.84 0c53.42,0 65.52,-5.11 102.3,-18.93 18.79,-119.65 -71.05,-47.44 -102.73,-101.5 -26.2,-44.57 17.2,-220.74 -246.5,-433.04 -158.67,-127.78 -397.32,-213.67 -659.88,-229.44l-13.02 -28.93c-7.42,-15.33 -13.1,-45.86 -59.76,-46.94 -75.02,-1.73 -45.72,42.26 -72.35,76.02z"/>
   <path class="fil1" d="M7405.58 20022.98l1.3 39.17c30.17,116.33 -42.69,414.38 -61.33,545.19 -13.47,95.17 -10.51,200.71 -13.76,300.56 -3.24,100 -37.58,197.62 -0.5,263.78 64.36,14.76 79.69,8.86 143.33,-0.86 -4.68,-56.73 -24.76,-45.86 -49.74,-93.73 -0.86,-55.52 43.12,-129.23 60.11,-196.9 18.36,-72.78 34.27,-140.02 53.78,-212.88 38.16,-142.4 72.35,-279.69 167.17,-347.07 122.96,42.4 150.39,213.17 215.9,335.47 72.43,135.21 63.35,156.95 119.58,291.14 22.75,54.28 19.14,53.64 76.6,68.61 -12.97,137.72 -48.96,106.4 94.38,123.39 77.67,9.15 126.91,37.37 216.47,20.45 -34.04,-66.01 -135.19,-68.03 -187.75,-181.92 -61.55,-133.33 -153.35,-518.2 -260.68,-780.46l-12.38 -41.76c-0.07,-2.01 0.5,-6.05 0.64,-7.84 0.07,-1.88 1.45,-6.34 1.59,-7.79 0.21,-1.5 1.08,-5.32 2.16,-7.77l74.37 -3.38c17.63,-19.01 -3.54,-4.68 29.51,-22.75 123.9,-67.75 156.51,-50.4 249.1,-22.46 63.27,19.07 86.96,22.03 136.63,44.35l96.54 37.44c16.21,8.13 16.78,9.93 24.62,16.19l232.82 25.05 49.39 -40.67 -442.96 -203.89c-25.71,-17.49 -99.93,-86.53 -118.14,-108.63 51.33,-104.75 21.31,-102.66 86.6,-159.17 17.57,-15.26 6.41,0.43 21.1,-19.22 -12.75,-88.77 -63.43,-170.34 -139.6,-181.99 -102.65,-15.77 -151.32,81.71 -188.68,134.04 -138.15,15.55 -333.61,-131.82 -551.75,-64.72 -79.69,24.48 -85.74,119.94 -106.69,204.97 -26.85,108.77 0.43,66.87 11.67,128.71 8.06,44.35 -21.03,86.04 -31.4,127.35z"/>
   <path class="fil1" d="M14940.66 10281.59c-50.26,-2.09 -88.12,-7.63 -121.75,-25.63 3.32,-3.53 7.13,-7.42 10.67,-10.01 3.23,-2.52 6.47,-6.04 10.43,-8.78 60.18,-41.46 -21.53,13.25 20.01,-10.94l23.33 -12.24c28.15,-16.12 -17.07,-15.26 38.66,-13.32 39.81,34.06 5.47,16.35 25.92,54.64 3.6,-10.72 10.44,-30.66 13.53,-35.7 22.46,-36.79 -13.24,4.6 18.65,-16.56l-6.05 -11.16 2.52 -40.96c-2.24,3.38 -4.32,8.13 -6.05,10.51 -1.51,2.3 -4.1,7.12 -5.9,9.57 -24.11,32.47 4.75,11.38 -23.83,20.16l-23.04 -87.4c18.72,-8.5 55.37,-17.86 88.55,-24.83 -11.23,-29.09 -29.16,-40.9 -51.98,-94.75 -24.4,-57.73 -35.77,-45.14 -55.94,-92.43 73.08,1.73 68.47,18.42 123.11,25.55 49.9,6.48 94.82,-6.33 148.81,-3.09 36.78,204.74 -90.06,251.75 -131.82,369.96l-97.83 -2.59zm332.95 -218.71c32.84,-39.81 48.89,-41.18 81.42,-68.24 5.04,-62.21 11.6,-100.65 -31.16,-126.5 -19.15,-11.58 -46.87,-19.3 -71.42,-15.55 -45.43,6.99 -13.39,11.74 -65.95,32.68 19.16,-27.42 30.38,-24.83 43.49,-69.39 -51.9,-23.4 -41.97,-28.01 -74.15,-66.24 -92.16,-6.04 -90.14,39.81 -182.36,10.45 -68.32,-21.75 -102.52,-47.31 -176.23,-29.16 -52.7,95.75 24.26,82.35 -53.06,163.71 -147.23,154.85 -204.03,308.62 -227.13,532.59 -34.63,335.7 -102.09,247.22 -113.46,384.86 -6.92,83.01 12.02,165.08 -10.3,243.98 -18.65,65.74 -25.26,165.3 -43.99,207.2 -3.23,1.58 -8.27,-0.51 -10.22,3.6l-85.74 16.12c-76.89,4.68 -25.56,4.11 -76.74,-19.72 -25.63,45.86 -60.33,86.74 -105.98,41.61 -1.22,-1.23 -3.52,-4.97 -5.75,-6.99 -38.81,55.07 -92.36,28.08 -145.93,55.37 -44.35,34.77 -17.56,43.26 -83.08,84.88 -0.65,67.02 5.04,100.93 44.63,128.79 53.85,12.09 24.34,1.94 63.22,-18 36.57,-18.65 202.15,-42.77 254.2,-50.54 168.67,-25.2 109.57,26.28 362.41,-46.94 0.5,-50.53 -16.99,-54.86 -38.95,-95.02 23.68,-52.85 37.79,-30.31 93.8,-176.09 29.02,-75.45 43.55,-120.73 91.36,-174.66 90.34,5.47 190.13,44.92 261.62,77.46l-150.03 276.38c-8.86,15.47 -3.68,9 -14.12,22.6l-11.51 12.74c-31.96,35.36 -71.34,103.89 -51.19,131.68 52.34,41.46 247,53.34 318.42,37.29 -7.7,-79.4 -27.14,-33.55 -84.23,-86.53 17.21,-91.43 247.01,-361.76 270.11,-415.97 7.56,-17.93 33.84,-181.35 16.13,-200.07 -64.44,-43.26 -111.45,14.55 -144.06,31.82 -36.65,-22.31 -33.04,-18.78 -57.66,-47.01 -49.68,-56.94 -124.26,-109.85 -208.93,-117.77 35.57,-118.65 -27.93,-12.31 -17.56,-114.26 20.16,-196.96 3.09,-152.91 181.42,-193.86 119.86,-27.5 92.15,-16.78 180.41,-231.24 18.57,-45.07 37.37,-106.05 78.25,-126.06z"/>
   <path class="fil2" d="M8816.04 20206.2l-459.16 38.95c18.36,64.5 63.28,110.8 100.5,165.08 32.04,46.72 74.8,113.1 106.69,168.53l169.47 2.01c14.83,502.66 -66.44,556.64 119.43,552.69 61.27,-142.48 122.9,-388.62 170.34,-549.74l979.88 -3.16 167.52 571.39 121.67 -0.57 1.87 -572.26 132.17 -2.6c40.24,-56.44 144.85,-266.58 159.33,-338.36 -296.39,-7.27 -599.63,2.6 -896.96,1.59 -272.12,-0.93 -567.64,-75.95 -823.36,-74.22l-49.39 40.67z"/>
   <path class="fil0" d="M9587 24066.39l301.07 3.96 2.3 -143.55 229.66 -3.46c19.22,81.57 0.57,697.02 -7.42,817.82l-168.74 -1.21 -5.33 300.27 623.3 9.29 4.04 -301 -144.64 -2.38 6.56 -814.14 235.55 0.43 2.09 150.53 297.61 3.24c3.53,-90.06 16.91,-386.96 0.35,-450.67l-1368.91 -20.74 -7.49 451.61z"/>
   <path class="fil1" d="M12505.97 20284.24c85.24,-3.38 183.94,6.41 259.24,-11.01 130.31,-30.17 432.74,21.81 744.32,-4.82l507.83 25.98c94.89,0.15 164,-2.88 253.99,-11.88 41.25,-4.1 75.66,-14.4 114.61,-7.06 56.87,10.74 43.05,24.2 114.61,18.58 18.14,-91 -12.24,-52.55 54.86,-93.44 35.06,-21.39 55.14,-42.55 51.47,-99.92 -63.13,-7.35 -23.4,-0.36 -60.54,18.28 -26.71,13.31 -42.48,16.56 -71.85,23.54 -180.77,42.69 -311.36,59.04 -504.66,27 -61.55,-10.16 -84.59,-30.1 -136.57,-44.35 -91.72,-25.13 -392.93,-55.79 -455.99,-99.93l60.11 -229.15c-67.81,-38.58 -71.49,-37.86 -90.64,-85.16l92.51 -103.59c-15.55,-75.67 -50.4,-40.83 -31.75,-106.98 88.84,-8.21 105.55,125.63 270.61,125.33 75.17,-0.14 119.8,3.82 191.58,15.27 131.09,20.94 41.18,47.08 135.56,76.74 84.87,-25.7 16.05,-43.56 116.34,-73.29 21.31,-6.34 41.54,-12.88 62.99,-19.01l78.32 -23.32c-18.49,-34.12 -17.56,-39.31 -136.2,-38.59 -210.86,1.37 -203.23,-4.9 -435.12,-84.73 -218.86,-75.38 -271.77,-140.67 -406.1,141.1 -35.57,74.65 -69.77,159.1 -100.72,238.07 -82.79,210.8 -58.39,196.83 -497.9,158.1 -125.84,-11.08 -164.63,73.36 -265.5,87.83 -2.3,-3.02 -4.53,-12.02 -5.39,-10.15l-13.11 -29.3c-5.69,-14.9 1.8,-9.22 -10.37,-33.04 -73.72,-11.16 -181.2,-28.94 -238.43,16.84 -63.86,50.97 -79.04,166.95 7.78,203.09 -16.64,18.21 -76.03,46 -54,110.07 15.33,44.64 73.51,30.39 132.1,29.95 104.68,-0.79 209.64,-0.07 314.4,-0.22l2056.72 0.44c65.23,-9.87 59.03,-73.79 28.8,-94.03 -30.82,-20.58 -106.84,-1.07 -141.46,1.09 -72.01,4.47 -80.5,-16.27 -131.18,-19.08 -67.46,-3.74 -198.69,20.51 -289.34,20.95 -109.92,0.58 -216.61,-2.88 -315.67,-9.93 -312.31,-22.33 -984.06,33.97 -1256.26,-6.27z"/>
   <path class="fil1" d="M11369.51 12568.47c7.49,-72.42 17.21,-124.18 5.33,-202.43 -12.02,-78.9 -38.88,-111.16 -56.01,-173.58 -71.56,-85.52 -121.88,-158.6 -235.91,-210.86 -376.74,-172.49 -793.64,145.78 -723.23,553.9 86.67,502.72 818.54,625.32 1009.82,32.97z"/>
   <path class="fil0" d="M10353.72 6617.36c281.34,40.39 583.13,112.31 757.41,-89.55 148.66,-172.21 197.48,-551.17 40.68,-745.12 -143.62,-177.82 -511.28,-169.18 -705.37,-28.29 -112.81,81.93 -95.1,206.98 -95.1,378.96 0,154.36 -8.14,332.61 2.38,484z"/>
   <path class="fil2" d="M9679.51 13269.1l-86.53 -328.65c-374.43,-46.29 -1613.04,-120.01 -1822.54,282.14 -87.55,168.1 27.07,420.65 113.75,528.06l22.6 -54.64c6.41,-22.97 7.27,-31.9 16.27,-55.36 99.28,-256.95 378.75,-355.42 640.22,-399.48 386.09,-65.09 737.99,-0.73 1116.23,27.93z"/>
   <path class="fil1" d="M13009.48 23602.99l303.31 753.89 715.51 -288.54c-14.25,-60.48 -289.83,-724.24 -313.16,-753.04l-705.66 287.69z"/>
   <path class="fil1" d="M7259.37 24187.41c29.88,-112.45 98.34,-261.98 142.62,-379.83 39.09,-104.32 122.88,-286.96 139.16,-384.93l-719.63 -268.46 -285.24 760.8 723.09 272.42z"/>
   <path class="fil2" d="M13555.25 18811.87l56.3 205.68c1.22,2.02 3.6,4.61 4.9,6.48l93.29 110.73c-50.89,15.62 -101.51,37.07 -112.02,94.88 -8.5,46.51 -6.91,166.44 4.61,204.81 25.49,37.01 331.09,125.92 463.34,124.99l165.29 -6.56c3.03,-1.16 6.84,-3.96 9.29,-5.04 52.05,-23.33 -72.14,-247.58 -92.36,-281.77 -88.34,-149.68 -170.26,-125.84 -237.73,-173.87 -81.71,-58.09 37.81,-180.41 -66.29,-320.14 -74.08,-99.49 -232.4,0.5 -288.62,39.81z"/>
   <path class="fil1" d="M10411.45 16604.53l-589.9 -207.26c38.8,153.85 586.01,1045.97 801.2,1130.84l-211.3 -923.58z"/>
   <path class="fil0" d="M7568.57 6835.06c254.99,27.44 391.43,44.06 649.94,-8.42 -1.65,-34.19 -295.88,-823.95 -323.39,-869.44 -38.94,81.78 -318.49,821.29 -326.55,877.86z"/>
   <path class="fil2" d="M11318.83 12192.46c17.13,62.42 43.99,94.68 56.01,173.58 11.88,78.25 2.16,130.01 -5.33,202.43 60.19,-25.77 338.44,-235.84 446.28,-294.09 183.79,-99.34 350.82,-144.05 590.48,-98.04 -23.69,-138.66 -289.19,-275.59 -526.19,-235.49 -109.22,18.43 -207.62,54.72 -298.48,99.21 -98.05,47.94 -179.55,114.61 -262.77,152.4z"/>
   <path class="fil2" d="M9746.47 14778.47c20.37,-188.4 33.91,-617.97 14.68,-803.21 -96.18,76.53 -463.77,978.29 -472.7,1049.07 61.48,36.34 195.39,142.46 267.38,164.85l190.64 -410.71z"/>
   <path class="fil2" d="M3306.46 13520.56c0.36,291.14 160.83,176.31 150.89,350.68 -7.91,143.04 -60.83,766.2 -13.68,900.9 14.83,42.4 11.67,32.97 42.48,45.78 102.87,-48.37 50.75,-473.19 46.14,-560.02 -5.39,-101.15 -11.15,-199.85 -12.95,-302.08 -3.17,-179.11 3.66,-138.51 80.19,-237.21 102.88,-132.54 56.8,-371.19 -33.47,-483.5 -139.52,-173.57 -259.81,120.88 -259.6,285.45z"/>
   <path class="fil2" d="M13466.2 19602.05c-19.15,20.59 -28.23,30.24 -49.9,51.26 -36.63,35.49 -34.56,23.11 -42.33,76.46 63.5,24.98 95.61,73.78 189.06,10.58 47.72,-32.4 24.76,-42.76 90.12,-41.11 39.97,1.01 112.39,3.75 129.38,40.17l18.28 66.52c4.82,28.87 10.81,61.19 17.35,93.37 13.47,65.73 4.61,155.65 13.33,189.77 109.56,64.08 301.21,73.08 445.19,53.28 20.73,-39.45 12.09,-95.68 10.51,-141.33 -5.47,-159.67 -23.25,-208.12 -77.53,-360.32 -22.69,8.51 -93.45,31.25 -112.1,41.33 -45.07,24.41 -34.2,50.9 -104.39,58.68 -104.09,-15.19 74.51,-61.41 -302,-91.43 -75.38,-6.06 -115.33,-10.08 -165.72,-50.55l-39.02 -33.9c-29.95,-27.35 -25.93,-30.02 -63,-45.65 15.56,46.94 30.67,35.79 42.77,82.87z"/>
   <path class="fil2" d="M6334.86 11543.09c-288.9,76.97 -197.91,554.99 134.62,463.99 290.34,-79.47 179.33,-547.64 -134.62,-463.99z"/>
   <path class="fil2" d="M6025.29 14811.59c133.33,-138.08 31.25,-597.9 27.07,-807.31 -1.51,-73.44 -1.15,-149.68 4.46,-222.81 10.58,-137.01 45.72,-58.25 74.15,-155.58 17.07,-58.17 11.6,-389.48 -8.99,-438.07 -56.51,69.54 28.22,361.69 -47.31,414.09 -35.27,-81.56 10.45,-346.34 -25.19,-413.08 -31.38,74.44 11.23,346.13 -24.19,412 -60.69,-24.04 0.65,-315.82 -36.28,-413.23 -56.16,74.15 30.16,350.67 -37.51,414.96 -54.13,-87.91 -5.69,-309.78 -36.86,-416.03 -26.71,51.1 -30.67,358.23 -14.83,424.75 33.62,141.17 86.61,-46.08 89.7,380.83 1.29,183.29 -102.08,735.97 35.78,819.48z"/>
   <path class="fil1" d="M5458.43 22660.9c88.98,39.59 371.69,249.16 518.48,324.1 27.65,-25.77 124.62,-172.85 138.52,-221.29 -153.35,-66.88 -403.01,-272.5 -527.85,-321.23 -32.32,55.07 -107.41,161.62 -129.15,218.42z"/>
   <polygon class="fil1" points="9120.86,23840.7 8515.26,23704.35 8461.78,23954.09 9068.81,24087.99 "/>
   <path class="fil1" d="M15027.91 14490.65l1438.96 0.86c-21.37,-22.74 -19.14,-23.32 -77.46,-43.7l-251.61 -74.44c-375.79,-90.34 -589.83,-35.84 -940.42,60.18l-169.47 57.1z"/>
   <path class="fil1" d="M15961.14 14227.59c-128.51,-0.43 -267.02,6.27 -396.11,11.67 -129,5.32 -225.9,-38.17 -335.91,-75.03 -44.27,32.11 -187.31,69.77 -249.81,87.55 -116.55,33.19 -183.14,31.02 -296.46,8.49 88.27,157.74 586.67,-72.35 774.71,6.63 -164.22,23.25 -301.79,48.38 -460.32,76.67 -225.55,40.24 -275.01,43.34 -431.52,-58.53 78.25,416.62 717.9,-47.87 1374.61,7.2 76.02,6.34 151.03,31.32 214.1,34.7l-193.29 -99.35z"/>
   <path class="fil2" d="M13660.86 21040.8c46.36,25.99 122.03,15.91 175.15,15.84 64.08,-0.07 128.73,3.17 192.29,-5.11 13.04,-79.19 6.92,-229.65 -1.57,-312.09 -8.36,-81.64 -6.27,-231.09 -17.43,-295.02l-192.94 -2.73c-37.36,146.86 88.05,407.62 -23.97,519.2 -61.91,61.77 -113.96,-11.45 -131.53,79.91z"/>
   <path class="fil2" d="M14157.61 21224.17l117.98 -5.27c25.28,-88.76 -14.39,-95.45 -13.24,-177.74 0.93,-71.41 -3.89,-134.84 -5.47,-205.97 -2.45,-108.42 26.93,-272.27 34.27,-392.85l-210.58 -0.43c6.27,113.96 -1.36,560.74 23.33,620.27 19.29,46.73 18.71,3.74 32.25,76.03 9.15,48.73 6.4,48.87 21.46,85.96z"/>
   <path class="fil1" d="M4343.57 18597.98l39.31 -20.08c52.27,-10.08 86.39,-11.01 109.93,30.38l9.5 13.1c16.71,-10.65 28.22,-8.71 32.11,-50.1 8.92,-95.47 -75.31,28.79 58.31,-316.48 25.49,-65.94 47.95,-61.26 69.55,-116.49 -174.73,18.58 -176.67,-1.14 -325.91,-21.08 -18.36,94.09 -28.51,172.49 -49.97,266.65 -20.94,92.15 -66.88,228.79 57.17,214.1z"/>
   <path class="fil1" d="M5441.65 18260.06c59.11,124.83 136.71,355.13 281.35,385.59 54.57,-61.77 67.38,-92.88 174.58,-66.74 -8.93,-38.88 -161.34,-398.55 -186.68,-425.33 -82.85,40.32 -95.6,57.6 -194.74,79.27l-74.51 27.21z"/>
   <path class="fil0" d="M5469.08 14231.05l227.64 -0.15c-14.69,-152.9 -201.72,-321.94 -296.89,-387.16 -103.96,-71.21 -327.2,-184.31 -482.06,-196.26 165.3,42.84 357.52,260.83 443.76,403.74 26.2,43.33 70.26,162.19 107.55,179.83z"/>
   <path class="fil2" d="M16923.44 16216.79c94.97,20.88 106.33,36 94.24,147.37 7.06,24.12 -2.08,12.52 22.47,18.43 65.29,-76.31 -9.72,-69.98 86.68,-224.47 162.62,-260.83 -292.87,-356.22 -263.5,-41.47l31.97 75.74c2.52,2.66 11.08,10.22 13.53,12.38 1.87,1.65 5.69,4.67 7.2,6.05 1.59,1.29 5.11,3.73 7.41,5.97z"/>
   <path class="fil2" d="M10490.71 8988.12c64.72,-28.8 94.02,-62.56 186.89,-37.36 39.38,-50.98 79.19,-81.14 108.57,-160.12 110.21,-295.88 -327.78,-112.44 -295.46,197.48z"/>
   <path class="fil0" d="M15006.31 10078.94c-27.36,25.26 -30.02,20.15 -75.44,26.92 13.96,14.68 10.51,23.68 17.49,32.11l8.63 -10.44c28.52,-4.1 8.07,-3.6 30.54,7.77 0,0 16.26,4.61 -13.47,56.59l6.05 11.16c-12.24,32.82 -29.37,61.48 -39.45,78.54l97.83 2.59c41.76,-118.21 168.6,-165.22 131.82,-369.96 -53.99,-3.24 -98.91,9.57 -148.81,3.09 -54.64,-7.13 -50.03,-23.82 -123.11,-25.55 20.17,47.29 31.54,34.7 55.94,92.43 22.82,53.85 40.75,65.66 51.98,94.75z"/>
   <path class="fil2" d="M15273.61 10062.88c141.62,31.68 390.78,387.32 549.38,317.41 12.31,-44.41 -31.68,-54.79 -98.35,-102.23 -47.08,-33.47 -81.56,-54.78 -126.7,-91 -44.56,-35.92 -75.45,-53.63 -125.27,-92.43 -37.93,-29.59 -94.59,-59.68 -117.64,-99.99 -32.53,27.06 -48.58,28.43 -81.42,68.24z"/>
   <path class="fil0" d="M10284.32 9351.17c-6.34,47.15 -3.03,9.94 9.06,26.57 59.03,-5.26 97.91,-29.09 153.34,-44.56 72.5,-20.3 110.23,-8.86 134.34,-68.4 -12.59,-45.42 -35.64,-38.73 -65.8,-76.81 -20.8,-26.36 -33.77,-64.15 -49.31,-92.88 -18.72,25.64 -32.4,35.65 -52.2,60.7 -22.46,28.36 -25.05,40.38 -41.75,66.59 -29.52,46.29 -58.89,95.31 -87.68,128.79z"/>
   <path class="fil2" d="M4343.57 18597.98c-37.94,36.36 -20.24,44.2 -60.26,85.03 -44.13,44.99 -44.92,35.13 -7.2,91.57 107.63,18.21 112.1,-18.14 169.83,-36.64 27.21,-8.72 38.73,-5.83 69.04,-17.57l-12.67 -98.99 -9.5 -13.1c-23.54,-41.39 -57.66,-40.46 -109.93,-30.38l-39.31 20.08z"/>
   <path class="fil1" d="M5284.42 15914.5c37.09,115.26 47.52,23.62 100,185.16l109.28 -1c-21.67,-199.14 20.3,-294.82 -129.72,-228.51 -38.95,17.28 -27.64,22.6 -52.56,35.56l-12.81 4.97c-1.44,0.51 -5.83,1.59 -6.99,1.94 -1.22,0.43 -5.04,0.73 -7.2,1.88z"/>
   <path class="fil3" d="M8046.82 20128.38c83.14,28.94 422.01,58.53 536.4,52.77 -7.84,-6.26 -8.41,-8.06 -24.62,-16.19l-96.54 -37.44c-49.67,-22.32 -73.36,-25.28 -136.63,-44.35 -92.59,-27.94 -125.2,-45.29 -249.1,22.46 -33.05,18.07 -11.88,3.74 -29.51,22.75z"/>
   <path class="fil1" d="M5358.36 18111.76l38.8 87.68c119.15,4.61 230.3,-34.2 299.2,-96.61 -4.61,-36.65 -12.81,-77.32 -28.43,-100.51 -41.47,54.64 -204.68,103.03 -309.57,109.44z"/>
   <path class="fil2" d="M5730.84 18695.32c25.57,25.7 85.46,70.26 139.24,71.99 72.21,2.45 88.4,-41.76 67.45,-103.88 -44.77,-133.19 -190.41,-129.74 -206.69,31.89z"/>
   <path class="fil0" d="M14704.45 13772.61c120.16,12.88 16.49,-41.19 156.51,-170.19 75.74,-69.9 136.2,-89.77 247.58,-70.63 -16.49,-12.89 11.23,2.16 -21.81,-16.19 -72.86,-40.54 -178.4,-8.43 -241.89,34.7 -60.48,41.11 -150.25,112.44 -140.39,222.31z"/>
   <path class="fil1" d="M4337.16 18066.25l93.23 36.5c116.84,26.29 229.87,27.79 296.97,-56.08 -279.26,3.96 -65.37,42.62 -379.55,-37.36l-10.65 56.94z"/>
   <path class="fil2" d="M11176.51 8826.36c7.63,60.32 21.88,37.22 73.28,73.78 29.51,21.03 58.03,44.06 82.51,74.38l62.48 -164.15 -218.27 15.99z"/>
   <path class="fil4" d="M14940.66 10281.59c10.08,-17.06 27.21,-45.72 39.45,-78.54 -31.89,21.16 3.81,-20.23 -18.65,16.56 -3.09,5.04 -9.93,24.98 -13.53,35.7 -20.45,-38.29 13.89,-20.58 -25.92,-54.64 -55.73,-1.94 -10.51,-2.8 -38.66,13.32l-23.33 12.24c-41.54,24.19 40.17,-30.52 -20.01,10.94 -3.96,2.74 -7.2,6.26 -10.43,8.78 -3.54,2.59 -7.35,6.48 -10.67,10.01 33.63,18 71.49,23.54 121.75,25.63zm33.4 -89.7c29.73,-51.98 13.47,-56.59 13.47,-56.59 -22.47,-11.37 -2.02,-11.87 -30.54,-7.77l-8.63 10.44c-6.98,-8.43 -3.53,-17.43 -17.49,-32.11 45.42,-6.77 48.08,-1.66 75.44,-26.92 -33.18,6.97 -69.83,16.33 -88.55,24.83l23.04 87.4c28.58,-8.78 -0.28,12.31 23.83,-20.16 1.8,-2.45 4.39,-7.27 5.9,-9.57 1.73,-2.38 3.81,-7.13 6.05,-10.51l-2.52 40.96z"/>
   <path class="fil2" d="M17237.33 16296.7c34.62,9 64.28,7.63 95.89,-4.82 22.82,-73.65 5.25,-119.44 -85.52,-95.97 -27.58,38.74 -25.78,55.72 -10.37,100.79z"/>
   <path class="fil2" d="M10254.07 9323.1l30.25 28.07c28.79,-33.48 58.16,-82.5 87.68,-128.79 16.7,-26.21 19.29,-38.23 41.75,-66.59 19.8,-25.05 33.48,-35.06 52.2,-60.7l-2.88 -28.64c-34.99,44.34 -65.22,88.84 -97.63,124.75 -40.24,44.71 -76.52,86.18 -111.37,131.9z"/>
   <path class="fil2" d="M7406.88 20062.15l-1.3 -39.17 -110.58 -7.56c-44.78,1.23 -14.1,-2.59 -37.58,9.79 19.37,34.99 47.02,27 149.46,36.94z"/>
  </g>
 </g>
</svg>
